<svg xmlns="http://www.w3.org/2000/svg" xmlns:xlink="http://www.w3.org/1999/xlink" version="1.1" x="0px" y="0px" viewBox="0 0 100 100" enable-background="new 0 0 100 100" xml:space="preserve"><g><path d="M40.012,91.375c-0.26,0-0.524-0.019-0.792-0.056C29.149,90.323,9.916,79.307,9.169,66.252l-0.026-0.454l0.23-0.392   c1.296-2.202,3.855-2.626,5.795-2.637c-1.35-4.998-0.57-10.208,2.397-16.135C10.087,41.147,4.987,33.584,4.751,27.501   c-0.108-2.774,0.805-5.022,2.641-6.502c2.511-2.026,5.971-2.569,9.495-1.492c5.934,1.814,11,7.856,14.045,16.682   c1.21-0.43,2.403-0.762,3.295-0.986c-2.134-10.628-1.205-18.775,2.652-23.039c2.327-2.573,5.555-3.637,9.59-3.153   c3.651,0.434,6.476,2.397,8.168,5.676c3.311,6.415,1.696,16.469-1.603,23.357c0.854,0.466,1.59,0.877,2.167,1.204   c4.441-8.402,12.129-17.16,20.109-18.832c3.938-0.824,7.524,0.109,10.66,2.774l0.123,0.116c2.108,2.246,3.021,4.681,2.713,7.236   c-0.809,6.714-9.995,13.335-23.01,21.841c1.363,2.83,1.883,5.615,2.081,7.349c7.68-1.279,13.695-1.104,18.35,0.526   c5.76,2.017,9.285,6.27,10.479,12.64c0.311,1.661-0.109,3.404-1.153,4.784c-5.102,6.746-12.1,3.792-16.282,2.029   c-0.954-0.403-1.855-0.783-2.438-0.915c-0.367-0.083-0.808-0.19-1.308-0.311c-3.613-0.873-13.207-3.186-16.146-0.678   c-3.539,3.02-10.31,5.146-14.339,5.714c0.509,2.076,0.206,4.143-0.902,5.706C43.154,90.617,41.679,91.375,40.012,91.375z    M12.208,66.604c1.117,10.303,17.629,20.772,27.367,21.737c1.15,0.156,1.78-0.374,2.116-0.848c0.615-0.869,0.962-2.605-0.087-4.639   l-1.204-2.334l2.622,0.149c2.664,0.15,10.826-2.084,14.411-5.144c4.104-3.501,13.663-1.195,18.797,0.044   c0.486,0.117,0.914,0.221,1.27,0.301c0.84,0.191,1.813,0.602,2.939,1.077c4.94,2.085,9.307,3.443,12.723-1.075   c0.535-0.708,0.753-1.59,0.597-2.422c-0.995-5.313-3.782-8.702-8.521-10.361c-4.416-1.547-10.626-1.585-18.461-0.116L65,63.307   l0-1.807c0-0.044-0.046-4.677-2.466-8.879l-0.709-1.23l1.19-0.775c12.513-8.147,22.138-14.826,22.813-20.433   c0.197-1.634-0.413-3.192-1.865-4.762c-2.378-1.993-5.08-2.688-8.038-2.07c-7.4,1.55-14.909,10.749-18.753,18.639l-0.709,1.456   l-1.397-0.819c-0.02-0.011-2.002-1.171-4.742-2.639l-1.333-0.713l0.724-1.328c3.423-6.273,5.203-16.175,2.256-21.885   c-1.232-2.387-3.203-3.757-5.857-4.073c-3.056-0.361-5.35,0.352-7.01,2.187c-3.312,3.662-3.91,11.619-1.64,21.832l0.332,1.495   l-1.502,0.301c-0.032,0.006-3.212,0.651-5.693,1.736l-1.54,0.674l-0.495-1.607c-2.675-8.693-7.252-14.609-12.557-16.232   c-2.556-0.782-5.009-0.432-6.735,0.958c-1.083,0.874-1.596,2.237-1.526,4.051c0.171,4.406,4.187,11.775,12.599,17.544l1.113,0.763   l-0.642,1.188c-3.513,6.499-4.179,11.919-2.096,17.057l1.087,2.682l-2.815-0.657C16.053,65.746,13.329,65.456,12.208,66.604z"></path></g><path d="M37.25,64.167c0-4.203,3.589-10.102,6.032-11.174c0.437-0.192,0.91,0.192,0.861,0.666  C43.648,58.438,37.25,64.167,37.25,64.167z"></path><path d="M43.948,68.667c0.874-3.781,5.208-8.316,7.76-9.045c0.55-0.157,1.059,0.384,0.857,0.92  C50.946,64.816,43.948,68.667,43.948,68.667z"></path><path d="M29.75,62.172c-1.037-3.173,0.053-8.358,1.576-10.301c0.41-0.524,1.227-0.289,1.314,0.37  C33.168,56.266,29.75,62.172,29.75,62.172z"></path></svg>