<?xml version="1.0" encoding="utf-8"?>
<!-- Generator: Adobe Illustrator 16.0.3, SVG Export Plug-In . SVG Version: 6.00 Build 0)  -->
<!DOCTYPE svg PUBLIC "-//W3C//DTD SVG 1.1//EN" "http://www.w3.org/Graphics/SVG/1.1/DTD/svg11.dtd">
<svg version="1.1" id="Layer_1" xmlns="http://www.w3.org/2000/svg" xmlns:xlink="http://www.w3.org/1999/xlink" x="0px" y="0px"
	 width="576px" height="576px" viewBox="0 0 576 576" enable-background="new 0 0 576 576" xml:space="preserve">
<path d="M322.055,436.15c-3.852-1.113-7.374-1.102-15.469-4.327c-9.647-0.189-20.496,0.125-26.853,0.286
	c-1.429,0.34-2.922,0.512-4.398,0.518c-1.553,0-3.071-0.184-4.541-0.535c-3.88-0.053-16.456-0.459-27.205-0.369
	c-4.493,1.548-8.886,3.095-12.337,3.81c-2.619,0.523-4.47,0.957-7.642,2.85c-5.029,3.006-9.528-4.547-4.493-7.522
	c6.743-4.041,14.415-4.297,21.646-7.183c6.035-2.405,21.092-8.559,27.537-2.53c1.863,1.767,4.434,2.708,6.993,2.708
	c2.577,0,5.142-0.94,7.017-2.708c3.154-2.487,9.421-4.684,27.524,2.53c7.648,3.046,10.981,2.993,14.647,4.04
	C330.106,429.354,327.672,437.774,322.055,436.15z M316.108,448.368c-3.345,3.256-8.986,4.345-13.396,3.393
	c-8.796-1.869-18.242-2.272-27.407-2.272c-8.79,0-18.592,0.397-27.395,2.272c-4.386,0.946-9.005-0.041-12.552-2.713
	c-0.535-0.399-0.833-0.68-0.833-0.68c-2.422-2.428-6.088,1.196-3.66,3.625c3.767,3.874,10.023,5.589,15.462,5.19
	c-0.476,2.707,1.506,5.88,5.142,5.213c7.684-1.459,15.962-2.231,24.615-2.231c8.635,0,16.968,0.772,24.663,2.231
	c3.577,0.654,5.576-2.416,5.171-5.112c4.464,0.023,8.851-1.387,12.456-4.107c0.906-0.672,1.382-1.171,1.382-1.171
	C322.179,449.583,318.514,445.94,316.108,448.368z M568.153,193.635l-7.94,3.457c0,0-3.927-6.004-11.343-14.575
	c-31.806-36.798-76.881-64.228-127.909-57.908c28.99,7.963,56.503,22.092,82.273,37.28l-3.731,7.903
	c-11.743-4.333-24.162-6.838-37.096-8.284c38.095,37.405,44.095,95.301,46.278,145.483l-8.659,1.172
	c-2.416-10.687-5.695-21.245-10.052-31.5c-5.666,28.573-17.296,56.819-30.853,80.464l-8.17-2.631
	c0.351-3.35,0.361-6.623,0.063-9.845c-2.13,2.602-4.683,4.786-7.517,6.376c-8.451,24.146-25.258,33.019-36.91,35.701l-12.653,57.939
	c-9.159,22.085-21.473,40.684-41.095,55.318c-3.541,3.415-7.814,5.391-10.838,9.611c-21.258,23.931-30.465,24.674-66.484,25.187
	c-35.934-0.513-45.416-1.262-66.686-25.187c-3.011-4.221-7.308-6.196-10.837-9.611c-19.604-14.635-31.936-33.233-41.101-55.318
	l-12.641-57.903c-10.391-2.339-24.99-9.616-34.066-28.376c-1.482,5.231-2.696,10.51-3.696,15.808l-8.701-0.869
	c0.196-23.146,4.523-51.975,10.79-78.208c-1.773,2.357-3.511,4.742-5.237,7.147l-7.838-3.583c1.97-8.064,4.208-15.813,6.749-23.122
	c-15.533,23.806-25.294,49.653-29.621,72.418l-8.689-0.858c0.203-24.139,7.19-72.102,18.242-106.656
	c-5.178,7.886-9.564,16.057-13.224,24.359l-8.278-2.785c5.719-23.866,20.943-52.29,34.435-76.393
	c-28.186,28.555-42.57,62.901-48.754,95.461l-8.666-0.232C22.427,167.156,125.62,92.478,194.924,69.279
	C132.012,70.338,72.039,95.066,29.069,140.66c-8.468,8.981-12.646,15.111-12.646,15.111l-7.791-3.868c0,0,1.679-5.077,6.57-13.087
	c32.78-53.729,103.484-80.231,161.541-90.867c62.318-11.403,126.267-2.065,179.823,32.388
	C445.701,46.258,544.251,97.042,568.153,193.635z M401.547,369.769c-3.106,3.82-6.879,7.147-11.24,10.379
	c-9.547,7.076-17.052,16.219-25.807,24.139c-7.934,7.167-5.583,20.069-5.332,29.604c0.339,14.557-2.78,29.852-8.804,43.069
	c0.216,1.822,0.644,6.619,0.322,13.879c16.17-13.021,27.163-29.649,35.09-48.736L401.547,369.769z M448.32,332.154
	c-15.229-45.083-85.076-78.869-82.458-137.961c-36.875,10.225-81.993,39.917-118.184,71.841
	c8.517,5.612,10.915,13.896,11.462,21.872l-0.411,0.191c-3.987-5.214-11.463-9.898-20.664-13.314
	c-1.422,1.321-2.821,2.648-4.208,3.981c9.611,3.214,17.176,7.779,20.753,12.456c4.434,5.863,4.767-2.028,20.705-2.028
	c15.956,0,16.288,7.892,20.729,2.028c6.243-8.176,24.746-16.033,45.006-16.883c27.734-1.143,47.248,7.504,55.794,12.254
	c4.695,2.623,8.963,2.992,8.963,2.992l8.035,0.066c1.304,0.142,2.351,1.256,2.351,2.606v9.594c0,1.453-1.196,2.626-2.643,2.626
	c-1.744,0.249-10.481,1.976-10.481,9.622c0,8.486-0.059,9.886-0.059,9.886c0,31.245-25.324,56.562-56.558,56.562
	c-10.224,0-19.812-2.708-28.09-7.457c-0.03,0.256-0.084,0.494-0.125,0.756c-1.185,5.993-4.78,10.541-11.892,10.541
	c-2.928,0-5.499-0.812-8.159-2.918l-0.731-0.548c-1.27,0.357-2.708,0.103-4.012-1.089l-0.757-0.666
	c-0.672,0.757-1.428,1.478-2.254,2.144c-6.262,10.004-23.699,10.046-30.043,0.154c-0.863-0.69-1.679-1.465-2.435-2.305l-0.756,0.662
	c-1.292,1.173-2.726,1.434-3.988,1.094l-0.72,0.537c-2.679,2.112-5.237,2.916-8.178,2.916c-7.106,0-10.701-4.547-11.891-10.54
	c-0.047-0.263-0.089-0.5-0.113-0.756c-8.285,4.75-17.866,7.457-28.097,7.457c-31.245,0-56.557-25.317-56.557-56.563
	c0,0-0.054-1.398-0.054-9.884c0-7.648-8.737-9.374-10.474-9.625c-0.179,0-0.351-0.018-0.512-0.047
	c-9.564,12.658-16.741,26.245-21.967,40.285c0.429,0.125,0.869,0.221,1.321,0.304c0.768,0.125,1.56,0.196,2.357,0.196
	c5.844,0,5.844,8.79,0,8.79l-0.768-0.017c6.624,14.14,16.64,20.58,24.645,23.322l-2.72-12.474
	c-6.922-11.902-8.892-28.418-5.131-55.694c0.708,0.269,1.459,0.446,2.244,0.483c2.315,0.416,5.838,1.605,5.838,4.486
	c0,6.938,0.042,9.255,0.065,9.886c0,4.922,0.565,9.694,1.654,14.266c1.018,20.164,8.308,29.489,19.438,37.755
	c10.367,7.685,20.008,15.701,26.567,24.872c5.618,7.826,7.368,13.98,7.195,27.787c-0.042,3.435-5.208,3.369-5.148-0.065
	c0.155-13.057-1.44-18.021-6.237-24.734c-6.064-8.444-15.128-16.074-25.443-23.716c-4.368-3.256-8.159-6.66-11.278-10.611
	l15.831,72.554c7.111,17.182,16.206,31.281,29.305,43.624c-0.994-5.928-1.53-12.022-1.845-17.651
	c-0.042-0.888-0.048-1.673-0.036-2.357c-3.142-3.119-5.165-7.302-5.094-11.725c0.042-3.434,5.208-3.362,5.154,0.077
	c-0.071,5.53,4.963,10.588,10.249,11.541c3.375,0.606,2.47,5.689-0.922,5.082l-0.881-0.185c0.536,7.809,1.601,16.224,3.72,23.437
	c0.065,0.221,0.107,0.411,0.143,0.607c3.999,2.953,7.814,5.826,10.641,9.72c5.619,6.32,11.076,13.074,19.051,16.604
	c7.57,3.326,18.884,5.058,40.886,5.361c22.824-0.32,39.5,0.441,54.92-16.391c1.56-1.707,3.185-3.576,4.976-5.582
	c2.791-3.833,6.321-6.338,9.891-9.082c0.971-11.6-0.084-18.223-0.084-18.223c-0.022-0.15,0.174-1.44,0.245-1.578
	c0,0,5.088-10.207,7.938-28.37c1.686-10.761-1.451-25.139,1.626-36.256c-4.78-10.041-12.147-19.253-19.039-25.931
	c2.612,0.445,5.278,0.726,7.976,0.845c4.992,5.476,9.879,11.997,13.7,18.944c0.94-1.519,2.076-2.906,3.452-4.143
	c8.896-8.06,16.497-17.26,26.192-24.444c11.491-8.54,18.794-17.467,19.419-38.439c0.976-4.368,1.5-8.909,1.5-13.581
	c0.018-0.643,0.054-2.959,0.054-9.885c0-2.882,3.546-4.072,5.85-4.487c0.846-0.043,1.654-0.245,2.398-0.554
	c4.16,28.787,2.106,45.255-5.38,57.098l-2.416,11.07c7.969-2.791,17.872-9.22,24.442-23.253l-0.839,0.019l-0.894-0.023
	c-5.85-0.138-5.659-8.904,0.185-8.779l0.869,0.023C438.853,345.177,445.023,340.416,448.32,332.154z M411.475,343.076
	c0.589-5.809,0.547-12.713-0.221-21.093C411.975,330.131,412.016,337.07,411.475,343.076z M165.203,275.788
	c5.785-5.41,13.302-9.688,21.89-12.527l0.785-3.089c-14.444,8.189-26.656,17.563-36.916,27.775c0.904-0.369,1.868-0.809,2.845-1.362
	c5.6-3.125,15.938-7.916,30.239-10.529c0.411-1.833,0.827-3.654,1.238-5.452C177.529,271.866,170.798,273.776,165.203,275.788z
	 M252.041,354.759c-13.236,2.332-20.765,24.473-7.749,24.473c1.804,0,3.333-0.471,5.125-1.917l0.369-0.268
	c-0.137-1.238,0.25-2.561,1.489-3.672c1.481-1.363,3.708-3.381,6.909-4.113c1.369-0.326,4.011,0.81,4.75,1.988
	c2.416,3.976,7.159,6.629,11.819,6.547l0.547-0.013l0.506,0.007c0.178,0,0.481-0.007,0.875-0.025
	c10.087-0.749,10.628-9.688,15.73-8.504c3.218,0.732,5.42,2.756,6.914,4.113c1.226,1.117,1.631,2.428,1.482,3.666l0.421,0.273
	c1.775,1.446,3.299,1.917,5.09,1.917c13.021,0,5.511-22.158-7.755-24.473c-2.042-0.358-2.518-2.357-1.839-3.737
	c-4.375-8.023-6.862-17.23-6.862-27.026v-16.183c0,0,0.923-8.059-14.569-7.832c-15.474-0.213-14.557,7.832-14.557,7.832v16.183
	c0,9.796-2.482,19.003-6.862,27.026C254.577,352.407,254.088,354.4,252.041,354.759z M395.687,312.199
	c-5.477-20.33-25.366-31.174-49.255-31.174c-14.07,0-26.753,3.756-35.924,11.011C334.337,304.236,363.757,311.663,395.687,312.199z
	 M250.904,305.325c-4.642-9.546-12.956-16.378-23.413-20.331c-4.369,4.395-8.516,8.791-12.396,13.088
	c1.309,0.411,2.637,0.805,3.957,1.185C229.961,302.387,240.704,304.397,250.904,305.325z M552.894,173.811
	C522.778,93.072,432.169,61.708,357.572,89.335l-3.916-0.44c-78.029-51.284-183.829-45.082-264.447-3.25
	c34.637-17.187,80.767-29.531,138.817-23.728l-0.018,8.737c-55.533,5.178-177.396,71.435-182.865,180.455
	c23.741-70.24,89.433-138.127,242.012-139.509l0.07,8.779c-79.85,0.72-134.859,19.92-172.146,47.874l-3.327,5.666
	c-7.564,13.551-16.545,29.293-24.484,45.07c30.721-36.435,79.637-63.752,150.167-66.395l0.328,8.766
	c-62.788,2.345-107.341,24.823-136.759,55.468l-4.112,9.249c-8.904,20.009-16.015,51.349-20.169,78.864
	c9.344-22.063,23.05-44.381,41.386-63.509l0.619-0.642c13.79-14.248,30.174-26.692,49.284-35.888l3.809,7.91
	c-18.086,8.695-33.638,20.509-46.767,34.06c-5.488,8.897-10.332,19.479-14.474,31.412c6.434-7.939,13.135-15.558,20.003-22.789
	l6.35,6.035c-5.018,5.297-9.945,10.801-14.76,16.491l-0.262,0.887c-4.809,16.563-8.933,35.268-11.694,53.367
	c14.605-33.186,40.422-63.466,82.636-84.677l6.19,5.107l-0.304,1.064c-6.172,21.515-11.177,46.493-13.569,69.056
	c30.87-50.207,121.708-124.499,184.626-138.664l5.303,4.845c-8.017,61.8,74.048,94.801,83.951,149.667
	c11.57-23.188,20.741-49.475,24.252-75.328l0.042-0.476c-5.868-10.885-13.111-21.276-21.955-30.929l6.469-5.929
	c13.094,14.266,22.812,30.038,29.884,46.494c-4.238-40.714-16.563-87.118-51.064-113l2.88-7.892
	c6.821,0.416,13.611,1.042,20.325,1.993c-21.587-10.854-47.279-21.657-71.132-24.597l-0.697-8.565
	C458.979,102.642,513.691,130.103,552.894,173.811z M291.499,287.917l0.417,0.185c7.618-9.969,28.037-18.046,48.892-18.92
	c18.633-0.779,33.757,2.684,44.611,6.606c-9.747-9.118-24.407-15.003-40.761-16.224C300.337,256.291,292.5,272.694,291.499,287.917z
	"/>
</svg>
