<svg xmlns="http://www.w3.org/2000/svg" xmlns:xlink="http://www.w3.org/1999/xlink" version="1.1" x="0px" y="0px" viewBox="0 0 100 100" enable-background="new 0 0 100 100" xml:space="preserve"><path d="M49.636,76.286c1.185,0,4.456,0,5.924-2.257c2.036-3.134,3.497-2.821,6.544-5.191c3.047-2.369-1.918-10.832-3.611-13.202  c-1.691-2.369-4.174-12.299-4.965-14.217c-0.789-1.918-2.707-3.047-3.892-3.047c-1.186,0-3.104,1.128-3.894,3.047  c-0.79,1.918-3.272,11.848-4.965,14.217c-1.692,2.37-6.657,10.833-3.611,13.202c3.047,2.37,4.508,2.058,6.545,5.191  C45.178,76.286,48.45,76.286,49.636,76.286z"></path><path d="M48.841,78.846c1.927-0.017,4.773-0.796,7.175-2.054c1.733-0.907,2.635-2.79,3.69-3.646  c3.524-2.858,5.025-5.306,5.033-4.958c0.009,0.347,1.166,0.32,1.965-0.161c0.8-0.481,1.044,0.092,1.058,0.671  c0.013,0.579,0.61,1.376,1.294,0.896c0.685-0.479,1.505-0.034,1.518,0.545c0.014,0.578,0.366,0.802,1.521,0.659  s0.137,0.924,0.146,1.271c0.007,0.348,0.723,1.258,1.417,1.241c0.694-0.016,1.292,0.781,2.018,2.122  c0.725,1.34-1.817,1.578-2.285,1.358c-0.469-0.222,0.068,3.008-1.333,2.462c-1.402-0.547-1.841,0.505-1.474,1.423  c0.369,0.917-0.299,2.091-1.235,1.649c-0.937-0.442-2.21-0.413-2.078,0.278c0.132,0.692-1.114,1.878-2.064,0.858  c-0.949-1.021-1.625-0.195-1.612,0.384c0.014,0.578-1.83,0.968-2.888,0.297c-1.058-0.67-2.633,1.335-3.124,0.072  c-0.492-1.263-1.623-0.079-1.836,0.73c-0.214,0.808-1.962,0.282-2.213-0.522c-0.249-0.806-2.408,0.981-2.774,0.157  s-1.01,1.435-1.62,0.037s-1.73,0.293-2.325-0.387c-0.594-0.679-1.822,1.313-1.851,0.043c-0.029-1.271-1.967,0.043-2.44-0.356  c-0.472-0.398-2.173,1.154-2.198,0.05c-0.025-1.104-0.935-0.379-1.858-0.242s-2.533,0.637-2.893,0.066  c-0.361-0.57-1.303-1.244-2.102-0.763c-0.8,0.481-2.315,0.053-2.315,0.053s-0.507-1.956-1.889-1.577  c-1.38,0.378-3.39-1.429-2.483-2.26c0.908-0.831,0.068-2.085-0.745-2.183c-0.813-0.097-3.511-1.656-1.439-2.167  c2.073-0.511,0.518-2.675,2.377-2.37s1.623,0.079,1.476-1.308c-0.147-1.386-0.295-2.771,1.104-2.34  c1.399,0.431,2.349,1.451,2.436,0.176c0.087-1.276,2.235-3.525,2.527-0.869c0.292,2.657,3.751,4.276,4.567,4.963  C41.094,74.837,44.748,78.883,48.841,78.846z"></path><path d="M59.474,28.421c1.39-0.579,11.113-5.209,33.686-2.431c0,0-0.348-1.39-0.463-1.737c-0.116-0.347-1.158-1.042-0.811-1.621  c0.348-0.579,1.62-0.926,0.694-1.273c-0.926-0.348-1.736-0.579-1.273-1.621c0.464-1.041,0.348-2.778-0.578-2.315  c-0.927,0.463-1.39-0.579-0.927-1.273c0.464-0.694-0.347-1.389-1.041-0.925c-0.695,0.462-1.969-0.695-1.042-1.274  c0.926-0.579-0.174,0.405-0.984,1.216c-0.811,0.81-1.157-1.621-1.157-1.621s0.115-0.695-0.694,0  c-0.811,0.694-1.042,0.771-1.042-0.309s-0.811-0.772-1.389,0c-0.579,0.772-1.042-0.086-0.927-0.699  c0.116-0.613-1.505,0.892-1.505,0.892s-1.273-0.457-1.273-1.039c0-0.582-2.076,0-2.076,0s-0.007,1.155-0.817,0.46  c-0.81-0.695-0.81-1.273-0.81-1.273l-0.812,1.042l-0.81-1.042L73.307,11c0,0-0.926,1.274-0.926,1.621  c0,0.347-0.926-0.463-1.158-1.042c-0.23-0.579-0.81,1.505-0.81,1.505L69.487,11c0,0,0.115,1.852-0.579,1.968  c-0.694,0.116-1.389-1.389-1.389-1.389l-0.463,1.505l-1.042-1.389l-0.348,1.852l-1.9-0.695c0,0-0.53,1.852-0.762,2.431  c-0.231,0.579-1.736-0.347-1.736-0.347s-0.231,1.158-0.926,0.347c-0.695-0.81,0.521,0.174-0.174,0.29  c-0.695,0.115-2.663,0.231-2.663,0.231s2.315,1.274,1.39,1.853c-0.927,0.578-1.853,0.752-1.853,0.752s0.348,1.679,0.695,1.679  c0.347,0-1.505,1.389-1.505,1.389s3.24,1.157,2.083,1.62c-1.157,0.464-1.679,0.811-1.679,0.811l2.143,1.042  c0,0-1.274,1.042-1.969,1.273c-0.694,0.232,2.432,0.232,2.432,0.232s-1.158,2.083-1.853,1.968  C56.696,28.306,59.474,28.421,59.474,28.421z"></path><path d="M39.217,28.769c-1.39-0.579-11.113-5.208-33.685-2.431c0,0,0.347-1.389,0.463-1.737c0.115-0.347,1.157-1.041,0.81-1.62  s-1.621-0.927-0.695-1.274c0.926-0.347,1.736-0.578,1.273-1.62c-0.463-1.042-0.347-2.778,0.579-2.315  c0.926,0.463,1.389-0.579,0.926-1.273c-0.463-0.695,0.348-1.389,1.042-0.926c0.694,0.463,1.968-0.695,1.042-1.274  c-0.926-0.579-0.174,0.406,0.636,1.216c0.811,0.81,1.158-1.621,1.158-1.621s-0.116-0.695,0.694,0  c0.811,0.694,1.042,0.771,1.042-0.309c0-1.08,0.81-0.772,1.389,0c0.579,0.772,1.042-0.086,0.926-0.699  c-0.116-0.612,1.505,0.892,1.505,0.892s1.273-0.457,1.273-1.039c0-0.582,2.077,0,2.077,0s0.007,1.155,0.817,0.46  c0.81-0.694,0.81-1.273,0.81-1.273l0.81,1.042l0.811-1.042l0.116-0.579c0,0,0.926,1.273,0.926,1.621s0.926-0.463,1.158-1.042  c0.231-0.579,0.81,1.505,0.81,1.505l0.926-2.083c0,0-0.116,1.853,0.579,1.968c0.695,0.116,1.39-1.389,1.39-1.389l0.463,1.505  l1.042-1.389l0.347,1.852l1.901-0.695c0,0,0.53,1.853,0.761,2.431c0.231,0.579,1.736-0.347,1.736-0.347s0.231,1.158,0.926,0.347  c0.695-0.81-0.174,0.174,0.521,0.29c0.695,0.116,2.663,0.231,2.663,0.231s-2.315,1.273-1.389,1.853  c0.926,0.578,1.852,0.752,1.852,0.752s-0.348,1.679-0.695,1.679c-0.347,0,1.505,1.389,1.505,1.389s-3.241,1.158-2.083,1.62  c1.158,0.463,3.01,0.811,3.01,0.811l-3.473,1.042c0,0,1.273,1.042,1.968,1.273c0.695,0.232-2.431,0.232-2.431,0.232  s1.158,2.083,1.852,1.968C41.995,28.653,39.217,28.769,39.217,28.769z"></path><path d="M76.963,27.033c-9.492,1.505-21.878,4.167-27.145,4.051c-5.268,0.116-17.653-2.546-27.145-4.051  c-9.492-1.505-18.752,1.042-18.752,1.042l0.811,5.787c2.894,0.348,3.009,3.937,5.672,13.313c2.662,9.376,19.447,7.756,23.73,6.714  c4.283-1.042,9.029-8.334,10.88-13.081c1.853-4.746,4.805-4.398,4.805-4.398s2.951-0.348,4.804,4.398  c1.852,4.747,6.599,12.039,10.881,13.081c4.283,1.042,21.067,2.662,23.729-6.714c2.663-9.376,2.778-12.965,5.672-13.313l0.811-5.787  C95.715,28.074,86.454,25.528,76.963,27.033z M39.699,44.029c-2.663,8.334-11.229,8.682-20.026,7.061  c-8.798-1.621-8.913-11.691-8.682-14.416c0.231-2.725-1.158-7.81,11.576-7.23c12.733,0.579,15.742,3.125,17.016,3.473  c1.273,0.347,1.273,3.758,1.273,3.758S41.201,38.29,39.699,44.029z M79.963,51.09c-8.797,1.621-17.362,1.273-20.025-7.061  c-1.503-5.739-1.157-7.354-1.157-7.354s0-3.411,1.272-3.758c1.273-0.347,4.283-2.894,17.017-3.473  c12.733-0.579,11.344,4.505,11.575,7.23C88.876,39.399,88.761,49.469,79.963,51.09z"></path></svg>