<svg xmlns="http://www.w3.org/2000/svg" xmlns:xlink="http://www.w3.org/1999/xlink" version="1.1" x="0px" y="0px" viewBox="-909 491 100 100" style="enable-background:new -909 491 100 100;" xml:space="preserve"><path d="M-823.5,558.3c-4.8-0.3-4.4,1.6-4.4,1.6l0.2,4.6c0,0,0,2.4-1.4,2.3s-1.8-2.8-1.8-2.8s-1.1-4.6-1.1-4.6  c0-0.1,0.1-0.3,0.1-0.4c0.1-0.3,0.1-0.7,0-1c-0.1-0.7-0.2-1.5-0.7-2.1c0,0-0.8-0.5-0.8-0.4c-0.5-3.4-2.2-6.8-5.7-7.8  c-0.2-0.1-2.5-0.5-3.6-0.7c0.1-0.3,0.3-0.6,0.4-0.9c0.3-1.2-0.4-2.3-0.8-3.3c-0.3-1-0.2-1.9,1-2c1.1-0.1,3.1,1,3.7,0.8  c0.7-0.1,1.5-0.7,1.5-1.5s-1.2-2.5-1.2-2.5s-1.6-3.2-2.1-4.6c-0.5-1.4-2.3-2.7-2.3-2.7s-1.8-1.3-1.6-2.2c0.2-0.9,0.9-1.2,1.2-2.1  c1,0.1,2.1,0.4,2.9,0.5c2.9,0.4,6.7,1.2,9,0.7c0,0,1.2-0.1,0-1c-1.2-0.9-4.1-3.7-5-4.7s-4.1-3.1-4.7-4.4c-1.9-3.9-2.4-8.6-5.6-11.9  c-2.3-2.4-5.2-4.3-8.2-5.6c1.1,0.2,2.2,0.3,3.3,0.3c0.1,0,0.3,0,0.4,0l0-0.9c-2.8,0.1-6-0.6-8.3-1.2c0.5,0,1-0.1,1.6-0.3  c1-0.3,2.9-1.1,2.5-2.5c-0.5-1.9-3.8-1.3-5.1-1.1c-2.5,0.4-4.8,1.6-7,2.8c-0.3-0.4-0.8-0.5-1.4-0.4c-0.4,0.1-0.7,0.3-0.9,0.5  c-0.4-0.2-1.7-0.7-4.9-0.7c-2,0-8.9,2.1-5.3,4.4c-1.5,0.4-3.2,0.8-4.4,0.9l0.1,0.9c0.7-0.1,1.5-0.2,2.4-0.4  c-2.5,1.5-4.7,3.4-6.6,5.6c-2,2.3-3.1,5.4-3.5,8.3c-0.5,3.6,0.5,7.2,0.3,10.8c-0.2,1.9-1.2,2.8-2.2,4.3c-1,1.5-1.4,3.2-2.4,4.7  c-0.8,1.4-2.1,2.4-3.2,3.6c-0.4,0.4-0.3,0.7,0,0.8c0.1,0,0.2,0,0.4,0c0.8-0.1,1.5-0.5,2.2-0.7c1.1-0.3,2.2-0.6,3.2-1  c0.7-0.3,3-1,5.4-1.9c0.1,0.9,0.2,1.9,0.4,2.5c0.4,1.2,2.3,3.4,2.3,3.4s1.8,1.6,1.9,3.7c0,1.1-0.3,2-0.7,2.6c-0.6-0.4-2.2-1-3.6,0.8  c-1.8,2.3-2.5,4.4-3.4,5.6c-0.9,1.2-3,3.6-3.2,4.7c-0.2,1.1,0.8,2.3,0.8,2.3l-5.7,10.3c0,0,2.5,2.9,8.6,3.3  c6.1,0.4,6.5-1.3,14.3,0.8c7.8,2.1,12.2,13.9,27.5,12c0,0-2-6.2-4.5-9.9c-2.5-3.7-5.4-7.8-5.4-7.8c0.2-1.1,1.4-4.6,0.6-5.4  c-0.5-0.5-1-0.9-1.5-1.4c0.4-0.9,0.9-1.8,0.9-2.8c0-0.9-0.4-2-0.1-2.9c0.2-0.6,0.8-1,1.4-1c0.8,0,1.3,0.7,2.1,0.9  c0.8,0.2,2.1,0.1,2.9,0.1c0.9,0,1.7,0.7,2.5,0.9c2.1,0.7,4.4,0.4,5.9-1.3c1.6-1.8,0.3-3.6,0.3-3.6s-1.2-1.5-1.2-2.4  c0-0.9,0.7-1.6,0.7-1.6l0-0.1c0.1,0,0.2,0,0.3,0c0.7,0,1.3-0.5,1.3-1c0-0.2,0-0.3-0.1-0.4c0.5,0.1,1.2,0.2,1.3,0.2  c0.8,0.2,1.5,0.4,2.2,0.8c1.4,0.8,2.3,2.2,2.7,3.7c0.1,0.5,0.7,2.2,0.3,2.6c-0.3,0.3-0.4,1.1-0.4,1.5c0,0.8,0.3,1.7,0.8,2.3  c0.1,0.2,0.6,0.5,0.7,0.7c1.2,5.1,1.6,11.1,8.3,11.6c2.8,0.2,4.4-1.3,4.4-1.3s1.8-1.1,2.4-4.1c0.6-3,0.7-6.5,0.7-6.5  S-818.7,558.5-823.5,558.3z M-865.4,497.4c-0.4,0-0.7,0-1.1,0c0,0,0-0.1,0-0.1C-866.3,497.4-865.9,497.4-865.4,497.4z M-872.9,497.9  c0.3-0.1,2.5-0.4,3.4-0.4c0,0.1,0,0.1,0,0.2c-0.3,0-0.7,0.1-1,0.1c-1.6,0.2-3.3,0.6-4.9,1.2C-874.6,498.5-873.8,498-872.9,497.9z   M-878.4,498.2c1.6-0.8,2.9-0.9,4.7-1.1c-1.4,0.1-3.1,2.5-4.6,2C-878.7,498.9-878.9,498.5-878.4,498.2z M-862,497.6  c0.1,0,0.3,0,0.4,0l0,0C-861.7,497.6-861.9,497.6-862,497.6z M-860.9,496.5c-0.8-0.1-2.2-0.5-3-0.2c1.3-0.4,2.5-0.9,3.8-1.2  c0.7-0.1,1.4-0.2,2.1-0.1c1,0.2,1.1,0.9,0.2,1.4c0,0-0.1,0-0.1,0C-858.8,496.9-859.9,496.6-860.9,496.5z"></path></svg>