<svg xmlns="http://www.w3.org/2000/svg" xmlns:xlink="http://www.w3.org/1999/xlink" version="1.1" x="0px" y="0px" viewBox="0 0 100 100" enable-background="new 0 0 100 100" xml:space="preserve"><g><g><polygon points="53.106,58.91 53.106,55.395 15.276,58.91   "></polygon><path d="M51.999,93.907l-0.064-0.531H35.785c-0.263,0-0.478-0.213-0.478-0.476c0-0.264,0.215-0.477,0.478-0.477h16.032    l-0.364-2.958H35.785c-0.263,0-0.478-0.213-0.478-0.476c0-0.264,0.215-0.478,0.478-0.478h15.549l-0.364-2.957H35.785    c-0.263,0-0.478-0.215-0.478-0.478c0-0.264,0.215-0.477,0.478-0.477h15.068l-0.365-2.958H35.785c-0.263,0-0.478-0.214-0.478-0.477    c0-0.264,0.215-0.478,0.478-0.478H50.37l-0.364-2.958H35.785c-0.263,0-0.478-0.214-0.478-0.477s0.215-0.477,0.478-0.477H49.89    l-0.365-2.957H35.785c-0.263,0-0.478-0.214-0.478-0.477c0-0.264,0.215-0.478,0.478-0.478h13.621l-0.363-2.958H35.785    c-0.263,0-0.478-0.214-0.478-0.477s0.215-0.477,0.478-0.477h13.141l-0.364-2.958H35.785c-0.263,0-0.478-0.213-0.478-0.477    s0.215-0.478,0.478-0.478h12.657l-0.636-5.169H32.064l-1.979,34.382c-0.035,0.158-0.057,0.321-0.057,0.491    c0,0.062,0.014,0.12,0.018,0.179l-0.018,0.313h0.057c0.226,1.019,1.132,1.781,2.219,1.781H49.89c1.086,0,1.991-0.763,2.217-1.781    h0.058l-0.028-0.222c0.012-0.089,0.028-0.178,0.028-0.271C52.164,94.449,52.103,94.167,51.999,93.907z"></path></g><path d="M87.75,18.626v26.102h11.355V18.626H87.75z"></path><path d="M8.275,11.423V49.3c0,1.903,2.642,3.451,5.889,3.452h39.875V7.973H14.164C10.917,7.973,8.275,9.521,8.275,11.423z"></path></g><path fill="#000000" d="M31.157,14.501c-8.347,0-15.113,6.767-15.113,15.113c0,8.347,6.766,15.113,15.113,15.113  c8.347,0,15.112-6.767,15.112-15.113C46.27,21.268,39.504,14.501,31.157,14.501z M31.157,42.048  c-6.867,0-12.434-5.567-12.434-12.434c0-6.867,5.566-12.433,12.434-12.433s12.434,5.566,12.434,12.433  C43.591,36.481,38.024,42.048,31.157,42.048z"></path><path d="M84.248,20.405l-8.419,1.571v-1.74h-4.942v1.765h-4.873h-0.526h-2.144v-1.596h-4.088v1.102h-2.641v-2.69h3.754V19v0.25  v0.449h1.094h5.074v-8.837h-5.074h-1.094v0.449v0.25v0.196h-3.754V5.48H12.359c-3.51,0-6.36,2.793-6.466,6.277H3.871V9.848H2.964  H0.579v2.911v4.865v2.915h3.292v-0.004v-1.717h2.012v29.569c0,3.577,2.9,6.476,6.477,6.476v3.776l40.991-3.809l0.005,0.033h3.26  v-2.965h1.397v0.001v0.471v0.22v0.042h0.299h0.848h0.652v0.434h0.68v-0.477V45.77v-0.433h-0.68v0.433h-0.652h-1.146v0.263v0.458  h-1.397v-4.644h2.641v1.101h4.088v-1.311h2.144h0.526h4.873v1.48h4.942v-1.48l8.419,1.311h2.823V20.405H84.248z M54.801,53.515  H14.164c-3.73,0-6.652-1.852-6.652-4.215V11.423c0-2.363,2.922-4.214,6.652-4.214h40.637V53.515z M63.004,42.608h-3.408V20.744  h3.408V42.608z M75.49,20.896v21.638v0.245h-0.537h-3.729v-0.245V20.896v-0.358l4.266,0.021V20.896z"></path></svg>