<svg xmlns="http://www.w3.org/2000/svg" xmlns:xlink="http://www.w3.org/1999/xlink" version="1.1" x="0px" y="0px" viewBox="0 0 48 48" enable-background="new 0 0 48 48" xml:space="preserve"><path fill="#000000" d="M46.9,44.8c-2.3-1.7-5.2-2.6-8.1-2.5c-1.2,0.1-2.3,0.3-3.4,0.6c-0.2,0-0.3-0.2-0.1-0.3  c5-3.2,8.8-8.3,10.1-14.6c2.5-12-5.2-23.9-17.1-26.7C16.2-1.6,4,6,1.1,18.1C-1.6,29.6,4.9,41,15.8,44.8c0.1,0,3.5,0.9,3.9,1  c3.9,0.9,8.1,1.6,12.3,0.8c1-0.2,2-0.4,2.9-0.7c1.5-0.4,2.8-0.8,4.2-0.8c2.2-0.1,4.4,0.6,6.2,1.9c0.6,0.5,1.5,0.4,2-0.3  C47.7,46.1,47.6,45.2,46.9,44.8z M33.5,22.2c2.4-1.5,5.6-0.7,7,1.7c1.5,2.4,0.7,5.6-1.7,7c-2.4,1.5-5.6,0.7-7-1.7  C30.4,26.8,31.1,23.7,33.5,22.2z M12.9,24.5c-2.4,1.5-5.6,0.7-7-1.7c-1.5-2.4-0.7-5.6,1.7-7c2.4-1.5,5.6-0.7,7,1.7  C16,19.9,15.3,23,12.9,24.5z M23.5,6c2.4-1.5,5.6-0.7,7,1.7c1.5,2.4,0.7,5.6-1.7,7c-2.4,1.5-5.6,0.7-7-1.7  C20.3,10.6,21.1,7.4,23.5,6z M17.6,32.1c2.4-1.5,5.6-0.7,7,1.7c1.5,2.4,0.7,5.6-1.7,7c-2.4,1.5-5.6,0.7-7-1.7  C14.4,36.7,15.2,33.5,17.6,32.1z"></path></svg>