<svg xmlns="http://www.w3.org/2000/svg" xmlns:xlink="http://www.w3.org/1999/xlink" version="1.1" x="0px" y="0px" viewBox="0 0 100 100" enable-background="new 0 0 100 100" xml:space="preserve"><g display="none"><rect x="-1111" y="-380" display="inline" width="282" height="243"></rect></g><g><path d="M30.832,47.533c-0.994,0.96-1.792,2.083-1.686,3.519c0.139,1.874,2.447,2.489,3.839,3.061   c1.58,0.648,2.825,2.78,3.472,4.262c0.759,1.74,0.154,3.442,0.027,5.224c-0.236,3.309,4.325,3.284,6.391,2.283   c1.103-0.534,1.934-1.265,1.921-2.567c-0.011-1.194-1.652-1.895-2.434-2.511c-1.317-1.041-1.052-3.057,0.421-3.764   c1.258-0.604,2.381-0.94,3.234-2.113c0.59-0.812,0.751-1.959,0.006-2.701c-0.938-0.93-2.975-0.257-3.96,0.181   c-0.827,0.365-1.192,0.88-2.18,0.844c-0.81-0.026-1.37-0.516-1.763-1.173c-0.728-1.213-1.05-2.596-1.853-3.79   c-0.641-0.952-1.488-1.579-2.671-1.487c-1.117,0.087-2.966,0.691-3.19,1.973c-0.116,0.662,0.696,1.203,1.138,1.536   c1.048,0.791,1.504,1.989,2.274,3.023c0.853-0.27,1.707-0.538,2.56-0.807c-0.799-0.521-1.768-1.147-2.199-2.024   c-0.383-0.78,0.681-1.494,0.304-2.352c-0.268-0.607-2.796,0.115-2.638,0.708c0.55,2.044,1.509,3.869,2.638,5.649   c0.976,1.537,2.757,1.928,3.886,3.248c0.405,0.475,2.508-0.185,2.56-0.806c0.149-1.769-0.731-2.977-2.36-3.576   c-0.335-0.125-2.692,0.329-2.401,0.869c0.719,1.338,1.696,2.519,1.745,4.096c0.01,0.32,0.942,0.175,1.077,0.146   c1.955-0.413,3.843-1.313,5.381-2.591c1.642-1.36,1.457-3.897-1.087-3.4c-1.12,0.219-2.031,0.904-3.023,1.423   c-0.747,0.39-1.902,1.02-1.187,1.963c0.916,1.207,4.529,0.208,4.717-1.29c0.218-1.741-3.533-0.186-4.086,0.457   c-0.305,0.354-0.276,0.719-0.118,1.123c0.229,0.579-0.41,0.594-0.776,0.894c-1.15,0.937-1.155,2.245-1.242,3.621   c-0.144,2.262,0.124,5.24,3.125,4.859c0.989-0.125,2.041-0.464,2.496-1.414c0.519-1.088-1.27-1.485-1.651-2.174   c-0.372-0.666-2.862,0.305-2.638,0.708c0.397,0.714,1.23,0.822,1.648,1.463c0,0.403,0.244,0.467,0.732,0.19   c-0.262-0.139-0.472-0.337-0.63-0.594c-0.353-0.495-0.411-1.203-0.468-1.786c-0.1-1.006,0.018-2.055,0.102-3.057   c0.052-0.639,0.175-1.582,0.84-1.896c0.409-0.192,0.946-0.465,1.155-0.896c0.136-0.28-0.053-0.624-0.152-0.878   c0.336-0.778,0.021-0.83-0.942-0.155c0.376,0.029,0.469-0.097,0.277-0.38c-0.099-0.317,0.999-0.739,1.204-0.848   c0.159-0.081,0.312-0.172,0.462-0.27c0.862-0.534-0.466,0.09-0.266,0.637c0.54,1.488-2.256,3.054-3.387,3.294   c0.36,0.048,0.718,0.097,1.077,0.146c-0.049-1.58-1.025-2.76-1.745-4.097c-0.8,0.29-1.6,0.58-2.4,0.871   c1.444,0.532,2.01,1.783,1.887,3.249c0.854-0.269,1.707-0.537,2.561-0.806c-1.182-1.383-2.921-1.772-3.948-3.393   c-1.054-1.661-1.91-3.404-2.422-5.308c-0.879,0.236-1.758,0.471-2.638,0.708c0.394,0.893-0.672,1.6-0.185,2.59   c0.413,0.842,1.479,1.49,2.234,1.983c0.443,0.289,2.859-0.403,2.561-0.807c-0.825-1.106-1.297-2.383-2.427-3.22   c-0.424-0.314-1.083-0.723-0.974-1.345c-0.038,0.22-0.776-0.379,0.007,0.278c0.309,0.259,0.536,0.61,0.759,0.94   c1.136,1.689,1.25,4.195,3.405,4.919c1.061,0.355,2.613,0.244,3.673-0.07c0.561-0.165,1.129-0.334,1.631-0.645   c0.344-0.216,0.684-0.433,1.018-0.665c-0.562,0.39-0.11,0.068,0.221,0.595c0.577,0.916-0.428,2.354-1.229,2.718   c-1.062,0.484-2.156,0.837-2.997,1.684c-0.724,0.73-0.811,1.956-0.481,2.877c0.347,0.967,1.534,1.506,2.299,2.077   c0.962,0.717,1.218,2.952-0.519,2.543c-1.883-0.444-1.83-2.253-1.526-3.769c0.593-2.965-0.7-5.497-2.793-7.559   c-1.198-1.18-2.958-1.249-4.172-2.432c-1.348-1.313-0.176-3.193,0.872-4.205c0.435-0.42-0.382-0.466-0.627-0.447   C32.02,46.944,31.262,47.117,30.832,47.533L30.832,47.533z"></path><path d="M42.455,69.642c-0.139,1.178,0.128,2.066,0.844,3.005c0.964,1.268,1.524,2.069,1.717,3.694   c0.13,1.095-0.257,2.903-1.583,3.091c-1.044,0.147-2.265,0.182-3.088,0.934c-1.738,1.592,0.914,2.565,2.173,2.738   c2.091,0.287,4.318-0.853,5.467-2.574c1.494-2.242,2.454-5.01,1.973-7.701c-0.369-2.06-2.673-5.045-5.104-4.228   c-0.853,0.285-1.641,0.719-1.675,1.712c-0.047,1.376,1.43,1.921,2.264,2.689c0.696,0.642,0.61,2.807,0.604,3.688   c-0.008,1.283-0.929,3.148-2.348,3.339c-0.542,0.072-1.367,0.353-1.473,0.99c-0.105,0.623,0.739,0.789,1.183,0.731   c1.998-0.267,3.707-1.454,4.709-3.201c0.896-1.562,0.572-3.521,0.328-5.211c-0.111-0.774-0.397-1.396-1.05-1.865   c-0.54-0.389-1.178-0.685-1.487-1.31c-0.99,0.003-1.135,0.13-0.434,0.377c0.275,0.211,0.521,0.45,0.736,0.721   c1.927,2.18,1.234,5.05,0.186,7.431c-0.663,1.504-1.809,3.313-3.694,2.484c-0.258-0.115-0.928,0.16-0.228,0.057   c0.436-0.063,0.874-0.095,1.305-0.185c0.895-0.191,1.868-0.658,2.518-1.314c1.369-1.379,1.522-3.098,1.239-4.94   c-0.322-2.103-2.679-3.262-2.426-5.412C45.256,68.154,42.579,68.584,42.455,69.642L42.455,69.642z"></path><path d="M36.575,44.616c2.823-0.999,6.088-1.599,8.971-0.495c1.182,0.452,2.142,1.329,2.417,2.593   c0.056,0.393-0.052,0.734-0.324,1.025c0.201-0.24,0.141-0.891,0.318-1.21c0.256-0.461,0.65-0.798,0.843-1.297   c-0.873,0.197-1.746,0.394-2.618,0.591c0.183,0.308,0.63,1.053,0.16,1.362c0.775-0.108,1.55-0.217,2.325-0.325   c-0.446-3.379-3.542-4.12-6.497-3.849c-1.506,0.139-3.014,0.547-4.41,1.123c-0.223,0.092-0.443,0.188-0.664,0.286   c0.095-0.175,0.084-0.347-0.034-0.519c0.105-0.35,0.329-0.566,0.67-0.646c1.017-0.389,2.715-0.143,3.752,0.063   c0.554-0.34,1.106-0.681,1.66-1.022c-1.789,0.167-3.565,0.158-5.307,0.656c-0.363,0.104-1.921,0.803-0.753,0.922   c2.699,0.275,5.396-0.062,8.096-0.162c0.215-0.008,2.313-0.752,1.818-0.963c-1.422-0.61-2.881-0.62-4.406-0.614   c-0.632,0.003-1.322,0.166-1.865,0.5c-0.414,0.254-0.362,0.558,0.149,0.556c1.239-0.005,2.47-0.051,3.635,0.448   c0.606-0.321,1.212-0.642,1.818-0.963c-2.513,0.093-5.016,0.398-7.529,0.142c-0.251,0.307-0.501,0.614-0.752,0.921   c1.27-0.363,2.64-0.285,3.947-0.406c0.259-0.023,2.539-0.848,1.66-1.022c-2.29-0.453-4.943-0.346-7.134,0.491   c-0.777,0.297-1.624,0.697-2.047,1.446c-0.503,0.891,0.868,1.216,1.406,1.202c1.919-0.049,3.553-1.255,5.466-1.431   c2.446-0.225,4.358,1.086,4.684,3.548c0.078,0.587,2.091-0.171,2.325-0.325c0.856-0.562,1.007-1.208,0.464-2.126   c-0.331-0.56-2.415,0.062-2.619,0.589c-0.32,0.825-1.104,1.322-1.117,2.265c-0.012,0.902,1.595,0.795,2.111,0.713   c2.138-0.336,4.417-1.678,2.803-3.998c-1.377-1.978-4.446-2.233-6.627-2.193c-2.623,0.049-5.237,0.683-7.7,1.555   c-0.108,0.038-1.189,0.479-0.791,0.73C35.313,45.051,36.15,44.766,36.575,44.616L36.575,44.616z"></path><path d="M30.31,68.138c0.299,1.675,1.115,3.223,1.509,4.888c0.313,1.323,0.996,2.509,2.005,3.419   c1.713,1.544,4.589,1.323,6.52,0.395c0.737-0.355,1.29-0.954,1.336-1.781c0.057-1.01-1.474-1.456-2.196-1.609   c-1.264-0.27-2.388-0.43-3.388-1.314c-0.936-0.831-1.306-2.101-1.805-3.204c-0.851-1.886-2.435-2.84-4.447-1.826   c-1.566,0.788,0.42,2.471,1.094,3.232c1.615,1.82,2.672,4.182,4.849,5.416c1.306,0.741,4.256,0.813,4.365-1.193   c-0.047-0.104-0.128-0.165-0.243-0.187c-0.5-0.192-0.82-0.204-1.353-0.192c-0.284,0.005-2.329,0.478-1.795,1.046   c0.43,0.305,0.468,0.652,0.112,1.046c-0.465,0.424,0.402,0.527,0.644,0.513c0.611-0.034,1.299-0.231,1.76-0.65   c0.687-0.626,0.564-1.192-0.04-1.837c-0.599,0.351-1.197,0.698-1.795,1.047c2.765-0.063,0.496-0.63-0.358-1.318   c-0.999-0.805-1.682-2.044-2.425-3.071c-0.195-0.271-3.058-3.486-2.839-3.693c-0.359,0.179-0.718,0.357-1.077,0.536   c-0.601,0.186,0.149,0.505,0.414,0.896c0.267,0.396,0.456,0.852,0.651,1.284c0.337,0.749,0.595,1.584,1.09,2.247   c1.272,1.709,2.892,1.979,4.86,2.397c0.543,0.114,1.021,0.407,1.243,0.919c0.068,0.156,0.023,0.817-0.217,0.838   c-1.193,0.105-2.242-0.564-3.021-1.388c-0.928-0.982-1.238-2.346-1.527-3.615c-0.31-1.359-1.042-2.565-1.289-3.944   C32.834,66.793,30.179,67.403,30.31,68.138L30.31,68.138z"></path><g><g><path d="M40.835,55.807c2.667,0,9.442-4.039,3.62-4.039C41.789,51.768,35.013,55.807,40.835,55.807L40.835,55.807z"></path></g></g><path d="M47.455,70.979c-0.088-0.46-0.37-0.808-0.72-1.101c-0.393-0.331-0.607-0.554-0.646-1.074   c-0.017-0.223-0.348-0.347-0.517-0.385c-0.279-0.065-0.55-0.068-0.832-0.023c-0.508,0.082-1.358,0.319-1.493,0.917   c-0.133,0.592,0.784,0.665,1.149,0.606c0.04-0.007,0.08-0.014,0.12-0.019c-0.21-0.008-0.421-0.017-0.63-0.022   c0.027,0.006,0.055,0.013,0.083,0.018c-0.172-0.127-0.345-0.255-0.517-0.385c0.038,0.498,0.276,0.919,0.644,1.251   c0.348,0.313,0.637,0.48,0.722,0.925c0.108,0.569,1.145,0.433,1.504,0.337C46.748,71.91,47.563,71.558,47.455,70.979L47.455,70.979   z"></path><path d="M67.27,47.892c1.023,0.988,1.867,2.257,1.295,3.702c-0.599,1.514-3.01,1.649-4.179,2.656   c-2.222,1.909-3.609,4.554-3.261,7.5c0.105,0.894,0.944,3.898-0.96,3.625c-1.452-0.209-2.398-1.833-1.256-2.969   c0.684-0.68,1.647-1,2.233-1.802c0.702-0.959,0.692-2.287-0.024-3.238c-1.216-1.616-4.92-1.463-4.449-4.31   c0.16-0.311,0.095-0.317-0.198-0.017c0.327,0.145,0.64,0.423,0.938,0.617c0.528,0.344,1.035,0.531,1.653,0.631   c1.312,0.217,2.68,0.02,3.927-0.399c2.212-0.744,2.507-3.108,3.534-4.907c0.114-0.195,0.237-0.385,0.367-0.571   c0.104-0.129,0.209-0.261,0.313-0.392c0.402-0.336,0.277-0.348-0.373-0.034c1.081,0.503,0.585,1.314-0.092,1.824   c-1.221,0.922-1.737,2.186-2.639,3.397c-0.243,0.327,0.654,0.317,0.732,0.313c0.537-0.042,1.126-0.197,1.582-0.493   c0.8-0.523,1.683-1.124,2.255-1.902c0.306-0.415,0.423-0.759,0.364-1.267c-0.071-0.613-0.651-0.916-0.358-1.583   c-0.867,0.153-1.735,0.306-2.603,0.458c-0.52,1.929-1.416,3.596-2.422,5.308c-0.954,1.625-2.754,1.993-3.919,3.354   c0.837-0.148,1.675-0.298,2.514-0.446c-0.086-1.021,0.144-2.337,1.264-2.749c-0.587-0.028-1.174-0.056-1.76-0.081   c-0.746,1.385-1.711,2.586-1.762,4.219c0.8-0.289,1.6-0.58,2.399-0.869c-1.317-0.28-6.537-2.714-4.25-4.568   c-0.479,0.197-0.957,0.395-1.438,0.593c-0.265,0.056,1.307,0.919,1.573,1.058c0.42,0.221,0.903,0.444,0.734,0.989   c0.843-0.131,1.037-0.314,0.58-0.549c-0.188-0.198-0.249-0.417-0.179-0.664c-0.361,0.172-0.723,0.342-1.083,0.514   c-0.669-0.007-0.762,0.072-0.277,0.234c0.398,0.219,0.436,0.581,0.283,0.968c-0.193,0.487-0.076,0.655,0.265,1.028   c0.226,0.127,0.457,0.244,0.694,0.349c0.496,0.233,0.702,0.834,0.849,1.317c0.183,0.607,0.153,1.315,0.193,1.945   c0.041,0.655,0.056,1.305,0.023,1.96c-0.019,0.346-0.077,0.683-0.173,1.015c-0.13,0.523-0.491,0.517,0.074,0.773   c-1.174-0.535,1.085-1.852,1.364-2.352c0.207-0.374-2.23-0.21-2.604,0.458c-0.366,0.658-1.832,0.891-1.723,1.847   c0.126,1.102,1.071,1.266,2.02,1.162c2.612-0.281,3.682-1.93,3.702-4.412c0.01-1.262,0.014-2.763-0.56-3.901   c-0.285-0.568-0.858-0.789-1.378-1.066c-0.223-0.118-0.021-1.293-0.123-1.568c-0.514-1.378-3.846-0.853-4.223,0.334   c-0.264,0.83,0.882,1.348,1.504,1.39c1.017,0.07,2.072-0.175,2.919-0.751c1.863-1.267-1.858-2.956-2.863-3.152   c-1.899-0.371-4.13,1.353-2.879,3.25c0.963,1.459,3.138,2.48,4.81,2.835c0.523,0.11,2.377-0.12,2.401-0.87   c0.047-1.521,1.036-2.688,1.727-3.973c0.299-0.555-1.632-0.129-1.761-0.082c-1.888,0.696-3.163,1.955-2.982,4.078   c0.053,0.633,2.278-0.173,2.513-0.446c0.629-0.736,1.524-1.094,2.313-1.632c0.651-0.444,1.151-1.016,1.604-1.653   c1.195-1.691,2.102-3.656,2.638-5.65c0.166-0.616-2.344-0.132-2.603,0.458c-0.308,0.697,0.088,1.172,0.323,1.83   c0.345,0.962-1.388,1.966-2.006,2.369c0.771-0.061,1.542-0.121,2.313-0.183c0.604-0.813,0.999-1.94,1.757-2.617   c0.47-0.419,0.996-0.708,1.398-1.206c0.802-0.995-0.442-2.152-1.495-2.132c-2.938,0.056-4.396,2.116-5.388,4.643   c-0.244,0.622-0.481,1.269-0.936,1.773c-0.464,0.517-1.978-0.346-2.494-0.682c-1.311-0.851-2.559-0.845-4.021-0.303   c-1.027,0.38-1.632,1.081-1.483,2.197c0.187,1.396,1.442,2.139,2.604,2.617c1.488,0.613,2.65,1.427,2.312,3.237   C58.721,61.55,56.905,62.06,56.152,63c-0.753,0.938-0.385,2.098,0.454,2.824c1.005,0.873,2.766,0.778,3.962,0.496   c1.264-0.296,2.563-0.837,3.243-1.996c0.755-1.29-0.132-3.282-0.138-4.655c-0.009-1.901,1.261-3.68,2.478-5.031   c1.192-1.323,3.162-1.453,4.473-2.729c1.607-1.564,0.442-3.654-0.871-4.922C69.248,46.5,66.847,47.483,67.27,47.892L67.27,47.892z"></path><path d="M55.436,69.866c0.229,1.943-1.897,3.174-2.369,5.014c-0.453,1.767-0.288,3.756,1.04,5.095c0.804,0.809,3,1.653,4.038,1.309   c-1.926,0.641-3.249-1.382-3.932-2.847c-1.041-2.241-1.683-4.678-0.344-6.953c0.257-0.436,0.614-0.829,1.012-1.141   c-0.317,0.249-0.737,0.77-1.226,1.089c-0.786,0.516-1.282,1.133-1.51,2.042c-0.895,3.566,0.188,7.726,4.354,8.28   c1.173,0.157,2.741-1.492,0.964-1.729c-3.285-0.438-3.099-4.462-2.662-6.811c0.116-0.621,0.767-0.898,1.243-1.232   c0.507-0.354,0.878-0.82,1.147-1.368c0.471-0.949-0.031-1.726-0.94-2.03c-2.271-0.763-4.701,1.88-5.372,3.737   c-1.046,2.898-0.01,5.828,1.501,8.36c1.099,1.841,3.202,2.666,5.277,2.381c1.089-0.148,4.35-1.395,2.666-2.936   c-0.648-0.594-1.769-0.601-2.594-0.699c-1.55-0.183-2.208-1.81-2.222-3.167c-0.017-1.608,0.596-2.667,1.598-3.853   c0.827-0.979,1.116-1.982,0.967-3.249C57.948,68.089,55.3,68.716,55.436,69.866L55.436,69.866z"></path><path d="M65.501,43.826c-4.309-1.524-10.928-2.545-14.584,1.025c-1.809,1.767-0.753,3.938,1.688,3.875   c0.697-0.018,2.405-0.275,2.721-1.068c0.417-1.058-0.619-1.641-0.969-2.544c-0.25-0.645-2.366,0.165-2.618,0.589   c-0.424,0.717-0.559,1.451,0.208,1.954c0.513,0.337,2.472-0.118,2.563-0.798c0.138-1.044,0.554-2.185,1.545-2.706   c0.758-0.396,1.983-0.117,2.771,0.027c1.637,0.298,3.301,1.561,5.003,1.221c1.794-0.36,3.3-1.708,0.98-2.761   c-1.914-0.869-4.581-0.699-6.59-0.3c-0.343,0.068-2.403,0.881-1.107,1.001c1.476,0.137,2.963,0.096,4.398,0.506   c0.555-0.341,1.107-0.682,1.661-1.022c-2.508,0.255-5.021-0.069-7.529-0.161c-0.034,0.229-0.067,0.459-0.103,0.689   c0.713-0.305,1.647-0.167,2.406-0.164c0.631,0.002,1.325-0.167,1.865-0.5c0.417-0.257,0.359-0.555-0.149-0.557   c-1.97-0.008-3.803,0.112-5.634,0.898c-0.445,0.19-0.857,0.662-0.102,0.689c2.703,0.1,5.394,0.417,8.096,0.142   c0.247-0.024,2.557-0.765,1.659-1.021c-1.581-0.453-3.229-0.404-4.854-0.556c-0.369,0.334-0.738,0.668-1.106,1.002   c1.287-0.255,2.651-0.162,3.94,0.03c0.446,0.066,0.879,0.304,1.268,0.52c0.226,0.122,0.397,0.297,0.518,0.527   c-0.215,0.752,0.17,0.754,1.152,0.001c-0.697-0.123-1.391-0.548-2.062-0.783C61.658,43.273,60.726,43.085,59.8,43   c-3.34-0.307-7.426,0.754-7.929,4.565c0.854-0.266,1.709-0.532,2.563-0.798c-0.647-0.425-0.43-0.971-0.095-1.536   c-0.874,0.197-1.747,0.394-2.619,0.591c0.226,0.581,1.61,1.755,0.871,2.385c0.362-0.167,0.726-0.333,1.087-0.5   c0.299-0.091-0.571-0.401-0.727-0.52c-0.554-0.423-0.395-1.214-0.188-1.744c0.534-1.379,2.021-1.777,3.339-1.888   c2.418-0.203,4.968,0.479,7.228,1.279C63.911,45.04,66.264,44.096,65.501,43.826L65.501,43.826z"></path><path d="M67.604,68.001c-0.322,1.801-1.148,3.562-1.632,5.337c-0.466,1.717-2.043,3.953-4.01,2.649   c-0.387-0.258-0.794-1.299-0.063-1.454c0.718-0.151,1.44-0.275,2.15-0.464c1.373-0.366,2.501-1.098,3.406-2.184   c0.82-0.982,1.15-2.347,1.737-3.468c0.058-0.097,0.115-0.196,0.173-0.295c0.512-0.495,0.291-0.584-0.66-0.267   c0.034,0.112-0.183,0.404-0.232,0.488c-0.27,0.458-0.667,0.86-1.018,1.26c-0.988,1.122-1.849,2.33-2.734,3.536   c-0.429,0.582-0.881,1.154-1.463,1.587c-0.233,0.172-0.489,0.336-0.757,0.451c0.865-0.369,0.562,0.148,0.52-0.62   c-0.281,0.239-0.564,0.475-0.848,0.712c0.141-0.052,0.279-0.107,0.418-0.161c-0.438,0.074-0.876,0.149-1.314,0.223   c0.138,0.004,0.277,0.007,0.417,0.011c-0.12-0.172-0.239-0.342-0.358-0.512c-0.592,0.632-0.797,1.213-0.112,1.837   c0.556,0.507,2.964-0.487,2.477-0.93c-0.403-0.388-0.39-0.735,0.039-1.046c0.288-0.306-0.046-0.506-0.357-0.512   c-0.789-0.018-1.411,0.089-2.149,0.375c-0.279,0.108-0.869,0.325-0.848,0.711c0.111,2.052,3.509,0.518,4.416-0.05   c2.088-1.31,3.174-3.602,4.762-5.415c0.426-0.488,2.699-2.621,1.306-3.054c-2.031-0.628-3.834,1.139-4.608,2.751   c-0.546,1.138-0.889,2.24-1.781,3.169c-0.842,0.873-2.549,0.823-3.655,1.189c-1.663,0.55-2.968,2.661-0.648,3.433   c2.068,0.688,4.881,0.082,6.503-1.38c1.038-0.937,1.664-2.114,2.027-3.454c0.444-1.634,1.212-3.229,1.509-4.89   C70.344,66.842,67.729,67.303,67.604,68.001L67.604,68.001z"></path><g><g><path d="M56.081,55.807c2.667,0,9.443-4.039,3.621-4.039C57.035,51.768,50.259,55.807,56.081,55.807L56.081,55.807z"></path></g></g><path d="M55.725,71.175c-0.003,0.014,0.084-0.286,0.026-0.161c0.025-0.057,0.239-0.306,0.087-0.146   c0.136-0.142,0.298-0.262,0.447-0.39c0.442-0.384,0.759-0.885,0.804-1.476c-0.377,0.283-0.756,0.565-1.135,0.848   c0.027-0.006,0.055-0.011,0.083-0.018c-0.33,0.015-0.659,0.031-0.987,0.047c0.04,0.006,0.079,0.013,0.12,0.018   c0.64,0.103,1.376-0.048,1.865-0.498c0.393-0.362,0.31-0.889-0.263-0.979c-0.419-0.066-0.772-0.051-1.188,0.047   c-0.355,0.082-1.102,0.396-1.137,0.847c-0.02,0.263-0.046,0.395-0.161,0.565c0.115-0.171-0.033,0.031-0.064,0.062   c-0.082,0.08-0.173,0.15-0.26,0.224c-0.422,0.351-0.774,0.773-0.879,1.325C52.881,72.548,55.546,72.11,55.725,71.175L55.725,71.175   z"></path><path d="M65.176,76.318c0.068-0.094,0.062-0.089-0.019,0.015c0.033-0.042,0.07-0.082,0.106-0.122   c0.089-0.102,0.188-0.195,0.284-0.289c0.201-0.194,0.401-0.389,0.576-0.606c0.15-0.188,0.312-0.383,0.241-0.645   c-0.064-0.242-0.308-0.377-0.531-0.437c-0.321-0.088-0.674-0.06-0.992,0.023c-0.289,0.078-0.678,0.232-0.872,0.475   c-0.403,0.501-0.908,0.892-1.278,1.424c-0.373,0.539,0.317,0.892,0.754,0.921C64.089,77.119,64.801,76.859,65.176,76.318   L65.176,76.318z"></path><g><g><path d="M61.923,76.479c1.912,0,4.518-0.701,5.766-2.27c1.286-1.615-1.092-2.158-2.25-2.158c-1.912,0-4.518,0.701-5.766,2.27     C58.387,75.936,60.765,76.479,61.923,76.479L61.923,76.479z"></path></g></g><path d="M59.837,63.353c0.291-0.615,0.782-1.123,1.336-1.511c-0.732-0.092-1.466-0.181-2.198-0.27   c0.252,1.057-0.602,1.621-0.757,2.597c-0.2,1.251,1.276,1.406,2.166,1.425c0.585,0.012,1.379-0.454,1.449-1.081   c0.079-0.703-0.698-0.88-1.227-0.892c-0.468-0.01,0.371,0.064,0.243,0.508c0.091-0.315,0.304-0.604,0.462-0.888   c0.416-0.748,0.498-1.55,0.3-2.375c-0.227-0.947-1.649-0.653-2.198-0.269c-0.868,0.612-1.648,1.468-2.104,2.434   C56.661,64.409,59.328,64.435,59.837,63.353L59.837,63.353z"></path><path d="M67.041,51.416c-0.262,0.246-0.508,0.508-0.763,0.761c-0.233,0.232-0.509,0.448-0.725,0.54   c-0.203,0.09-0.916,0.539-0.329,0.661c0.598,0.124,1.302-0.108,1.842-0.344c0.97-0.424,1.604-1.128,2.357-1.833   c0.435-0.41-0.385-0.429-0.617-0.408C68.238,50.845,67.474,51.01,67.041,51.416L67.041,51.416z"></path><g><g><path d="M60.992,54.824c2.07,0,4.363-0.583,6.146-1.647c1.39-0.828,1.188-1.741-0.467-1.741c-2.07,0-4.363,0.583-6.146,1.647     C59.136,53.911,59.338,54.824,60.992,54.824L60.992,54.824z"></path></g></g><g><g><path d="M45.575,50.01c1.938,0,4.535-0.673,5.751-2.322c1.224-1.659-1.032-2.362-2.304-2.362c-1.938,0-4.535,0.673-5.751,2.322     C42.047,49.306,44.302,50.01,45.575,50.01L45.575,50.01z"></path></g></g><g><g><path d="M50.566,46.394c2.063,0,4.363-0.608,6.147-1.647c1.403-0.818,1.186-1.672-0.448-1.672c-2.063,0-4.363,0.608-6.147,1.647     C48.715,45.54,48.933,46.394,50.566,46.394L50.566,46.394z"></path></g></g><g><g><path d="M52.28,46.156c2.742,0,9.421-4.158,3.588-4.158C53.126,41.998,46.447,46.156,52.28,46.156L52.28,46.156z"></path></g></g></g><g><path d="M50.318,94.896c-6.691-0.3-10.52-4.22-10.815-4.533c-1.911-1.611-4.733-4.531-4.762-4.561   c-2.602-2.301-4.756-10.485-4.922-11.13c-2.473-5.23-1.83-9.786-1.592-10.997c-3.158-0.877-3.855-7.105-3.885-7.38   c-0.647-5.532,0.316-7.959,1.239-9.021c0.495-0.568,1-0.78,1.304-0.858c0.178-2.197,1.375-4.829,1.428-4.943l0.051-0.112   l0.114-0.044c10.065-3.926,21.769-2.762,21.884-2.75l-0.062,0.604c-0.115-0.012-11.586-1.15-21.486,2.667   c-0.237,0.543-1.253,2.967-1.339,4.85l-0.013,0.283l-0.283,0.006c-0.021,0-0.582,0.036-1.165,0.725   c-0.829,0.979-1.686,3.251-1.069,8.528c0.007,0.066,0.721,6.451,3.689,6.916l0.329,0.05l-0.082,0.324   c-0.013,0.05-1.25,5.13,1.497,10.92l0.02,0.054c0.022,0.087,2.232,8.635,4.762,10.871c0.045,0.046,2.859,2.957,4.748,4.546   l0.027,0.026c0.037,0.04,3.847,4.06,10.41,4.354L50.318,94.896z"></path><path d="M50.396,94.896l-0.028-0.606c6.576-0.296,10.372-4.313,10.41-4.352l0.027-0.028c1.887-1.589,4.701-4.5,4.73-4.529   c2.546-2.253,4.756-10.801,4.778-10.888l0.02-0.054c2.753-5.802,1.51-10.87,1.497-10.92l-0.082-0.324l0.329-0.05   c2.972-0.467,3.683-6.85,3.689-6.913c0.617-5.279-0.239-7.551-1.068-8.531c-0.584-0.689-1.146-0.725-1.17-0.725l-0.274-0.015   l-0.017-0.275c-0.086-1.885-1.103-4.307-1.339-4.85c-9.904-3.819-21.371-2.679-21.485-2.667l-0.063-0.604   c0.117-0.013,11.819-1.176,21.884,2.75l0.114,0.044l0.052,0.112c0.053,0.114,1.249,2.747,1.428,4.943   c0.303,0.078,0.809,0.291,1.303,0.858c0.923,1.062,1.887,3.489,1.239,9.025c-0.029,0.271-0.727,6.499-3.885,7.376   c0.238,1.211,0.882,5.767-1.592,10.997c-0.167,0.645-2.321,8.831-4.939,11.146c-0.011,0.013-2.834,2.933-4.745,4.544   C60.915,90.677,57.087,94.597,50.396,94.896z"></path><g><g><path d="M19.913,52.828c2.249,0.969,4.521,1.363,4.521,1.363C22.625,53.752,21.134,53.295,19.913,52.828z"></path><path d="M24.407,54.34c-0.023-0.005-2.315-0.407-4.555-1.371l0.114-0.281c1.255,0.478,2.77,0.935,4.502,1.356L24.407,54.34z"></path></g><g><path d="M80.571,52.828c-1.222,0.467-2.712,0.924-4.521,1.363C76.051,54.191,78.322,53.797,80.571,52.828z"></path><path d="M76.076,54.34l-0.062-0.296c1.732-0.422,3.248-0.879,4.503-1.356l0.113,0.281C78.392,53.933,76.1,54.335,76.076,54.34z"></path></g><g><path d="M78.063,42.712c-1.758-1.282-4.348-2.933-4.348-2.933c-2.428-6.371-2.934-18.507-2.934-18.507     c0.304-2.63-1.82-3.742-1.82-3.742c-0.708-1.011-4.955-3.337-4.955-3.337c-1.619-0.303-6.573-6.068-6.573-6.068     c-3.654-3.835-6.646-3.218-7.192-3.062c-0.545-0.156-3.538-0.773-7.191,3.062c0,0-4.956,5.765-6.573,6.068     c0,0-4.248,2.326-4.956,3.337c0,0-2.124,1.112-1.82,3.742c0,0-0.505,12.136-2.933,18.507c0,0-2.591,1.65-4.349,2.933     c0,0-14.615,5.508-2.507,10.116c-2.098-0.9-4.175-2.302-4.37-4.351c0,0-1.312-7.472,34.699-8.897     c36.01,1.425,34.7,8.897,34.7,8.897c-0.196,2.05-2.273,3.45-4.37,4.351C92.68,48.22,78.063,42.712,78.063,42.712z"></path><path d="M80.625,52.972l-0.113-0.282c2.682-1.153,4.12-2.576,4.278-4.227c0.002-0.016,0.09-0.637-0.653-1.54     c-1.857-2.258-8.732-6.195-33.901-7.19c-25.157,0.995-32.031,4.933-33.889,7.19c-0.743,0.902-0.656,1.524-0.655,1.53     c0.159,1.661,1.598,3.083,4.281,4.237l-0.114,0.282c-3.252-1.238-4.901-2.674-4.898-4.266c0.006-3.257,6.881-5.936,7.386-6.128     c1.619-1.178,3.955-2.68,4.297-2.898c2.376-6.289,2.9-18.292,2.906-18.413c-0.29-2.496,1.593-3.691,1.868-3.852     c0.775-1.041,4.813-3.26,4.986-3.354l0.045-0.016c1.547-0.291,6.438-5.96,6.486-6.018c2.558-2.685,4.798-3.247,6.23-3.247     c0.513,0,0.883,0.075,1.077,0.126c0.195-0.052,0.563-0.126,1.078-0.126c1.431,0,3.672,0.562,6.225,3.242     c0.054,0.063,4.942,5.733,6.491,6.023l0.045,0.016c0.172,0.095,4.21,2.313,4.985,3.354c0.275,0.161,2.159,1.357,1.867,3.875     c0.006,0.098,0.531,12.101,2.906,18.39c0.344,0.219,2.68,1.72,4.298,2.898c0.506,0.192,7.38,2.871,7.387,6.128     C85.525,50.298,83.878,51.733,80.625,52.972z M15.645,47.435c-0.24,0.411-0.38,0.836-0.381,1.271     c-0.001,0.798,0.475,1.562,1.422,2.285c-0.775-0.761-1.208-1.596-1.294-2.499C15.388,48.478,15.323,48.068,15.645,47.435z      M84.837,47.431c0.324,0.636,0.257,1.049,0.253,1.072c-0.085,0.895-0.516,1.725-1.286,2.482c0.942-0.722,1.417-1.484,1.416-2.28     C85.219,48.271,85.078,47.844,84.837,47.431z M50.236,39.429c19.996,0.791,28.531,3.454,32.166,5.679     c-2.005-1.343-4.35-2.238-4.391-2.254l-0.036-0.019c-1.734-1.264-4.315-2.912-4.342-2.927l-0.041-0.027l-0.018-0.047     c-2.408-6.321-2.938-18.433-2.943-18.555c0.289-2.521-1.719-3.603-1.739-3.614l-0.033-0.018l-0.021-0.03     c-0.655-0.936-4.567-3.105-4.884-3.28c-1.675-0.359-6.434-5.877-6.636-6.113c-2.472-2.596-4.628-3.142-5.999-3.142     c-0.516,0-0.87,0.08-1.036,0.127L50.242,5.22l-0.041-0.012c-0.166-0.047-0.521-0.127-1.036-0.127     c-1.373,0-3.526,0.546-6.004,3.148c-0.198,0.23-4.957,5.748-6.631,6.107c-0.317,0.175-4.228,2.344-4.884,3.28l-0.021,0.03     l-0.033,0.017c-0.083,0.044-2.027,1.1-1.74,3.591c-0.004,0.145-0.534,12.257-2.942,18.578l-0.018,0.047l-0.042,0.027     c-0.026,0.016-2.607,1.664-4.34,2.927l-0.037,0.019c-0.041,0.016-2.38,0.909-4.382,2.25     C21.729,42.879,30.265,40.219,50.236,39.429z"></path></g></g></g></svg>