<?xml version="1.0" encoding="utf-8"?>
<!-- Generator: Adobe Illustrator 16.0.3, SVG Export Plug-In . SVG Version: 6.00 Build 0)  -->
<!DOCTYPE svg PUBLIC "-//W3C//DTD SVG 1.1//EN" "http://www.w3.org/Graphics/SVG/1.1/DTD/svg11.dtd">
<svg version="1.1" id="Layer_1" xmlns="http://www.w3.org/2000/svg" xmlns:xlink="http://www.w3.org/1999/xlink" x="0px" y="0px"
	 width="576px" height="576px" viewBox="0 0 576 576" enable-background="new 0 0 576 576" xml:space="preserve">
<g>
	<path d="M63.387,234.527c1.701,1.679,4.494,4.663,8.349,8.797c22.769,24.375,83.247,89.129,130.078,106.098
		c0.164,0.064,0.309,0.15,0.433,0.273l18.309,17.568c0.348,0.336,0.464,0.861,0.288,1.314c-1.264,3.229-1.667,5.146-1.707,5.355
		c-0.327,1.654,0.761,3.281,2.423,3.625c1.624,0.33,3.32-0.799,3.655-2.414c0.015-0.02,0.065-0.281,0.195-0.748
		c0.125-0.406,0.443-0.725,0.853-0.84c0.41-0.111,0.848,0,1.148,0.297l42.917,41.193c0.372,0.355,0.479,0.912,0.263,1.379
		c-1.15,2.463-1.539,3.904-1.582,4.057c-0.362,1.393,0.483,2.836,1.879,3.215c1.361,0.365,2.868-0.508,3.244-1.861
		c0.009-0.031,0.066-0.23,0.197-0.588c0.134-0.383,0.462-0.676,0.857-0.768c0.399-0.096,0.812,0.018,1.115,0.307l44.923,43.113
		c0.443,0.43,0.491,1.121,0.119,1.613c-0.476,0.625-0.897,1.207-1.267,1.736c-0.641,0.785-1.097,1.51-1.427,2.252
		c-0.023,0.066-0.059,0.123-0.088,0.178c-0.818,1.283,1.136,6.16,3.468,9.912l4.169,7.828c1.832-2.102,4.046-4.342,6.601-6.691
		c0.045-0.051,0.092-0.107,0.142-0.16c11.743-10.725,29.604-22.797,53.096-35.865c0.585-0.322,1.157-0.635,1.727-0.938l0.147-0.078
		c0.615-0.326,1.213-0.637,1.809-0.941c0.539-0.299,1.136-0.623,1.747-0.947l0.147-0.08c0.569-0.303,1.151-0.605,1.741-0.906
		c23.967-12.16,43.971-20.217,59.428-23.953c0.069-0.018,0.139-0.021,0.214-0.029c3.37-0.799,6.466-1.381,9.237-1.727l-4.12-7.752
		c-1.842-4.115-4.798-8.461-6.312-8.498c-0.064,0.002-0.131-0.002-0.196-0.025c-0.798-0.15-1.653-0.178-2.548-0.08
		c-0.675,0.006-1.301,0.031-1.956,0.074c-0.618,0.027-1.151-0.398-1.255-1.01l-10.799-62.402c-0.071-0.393,0.061-0.795,0.351-1.072
		c0.278-0.271,0.688-0.398,1.073-0.324c1.163,0.225,1.846,0.43,2.001,0.477c1.315,0.449,2.884-0.307,3.349-1.629
		c0.48-1.379-0.25-2.889-1.625-3.377c-0.193-0.068-2.032-0.682-5.508-1.143c-0.526-0.072-0.949-0.475-1.034-0.99l-10.046-58.04
		c-0.077-0.416,0.069-0.84,0.383-1.11c0.312-0.283,0.75-0.379,1.15-0.266c1.015,0.301,1.626,0.531,1.845,0.624
		c1.583,0.671,3.439-0.094,4.093-1.615c0.331-0.763,0.346-1.606,0.038-2.369c-0.307-0.763-0.887-1.375-1.654-1.703
		c-0.23-0.101-2.428-1.019-6.526-1.894c-0.484-0.101-0.859-0.488-0.949-0.976l-4.485-25.972c-0.026-0.162-0.028-0.324,0.017-0.484
		c11.39-48.274-7.323-129.81-15.312-164.618c-1.305-5.706-2.345-10.215-2.869-12.982c-1.862-9.748-6.549-20.701-13.915-32.52
		c-0.39-0.622-0.647-1.045-0.756-1.249c-0.135-0.254-0.859-0.489-1.587-0.102l0,0c-0.722,0.384-1.203,1.259-1.366,2.461
		c-0.093,0.721-0.464,1.949-2.467,4.501c3.023,1.589,11.271,7.153,13.121,21.062c0.396,2.966,1.694,10.084,3.329,19.098
		c5.945,32.718,15.871,87.417,15.923,116.731c0.009,5.024-0.287,9.142-0.867,12.249c-0.87,4.644-1.939,9.825-3.182,15.391
		c-1.205,5.402-2.573,11.245-4.084,17.363c4.805,8.314,7.84,13.237,9.814,15.944c0.109,0.145,0.183,0.321,0.219,0.51l1.882,10.879
		c0.062,0.372-0.051,0.751-0.306,1.031c-0.257,0.279-0.624,0.422-1.009,0.386c-5.853-0.529-12.245-0.529-18.995,0.026
		c-0.895,0.071-1.803,0.155-2.736,0.24c-0.393,0.046-0.791-0.115-1.049-0.427c-0.257-0.301-0.348-0.715-0.234-1.103
		c0.327-1.178,1.03-3.671,1.962-7.121l5.617-21.645c2.093-8.469,3.903-16.341,5.377-23.386c0.656-3.135,1.258-6.162,1.793-8.997
		c1.231-6.506,1.021-18.07-0.621-34.335c-3.009-29.908-10.161-69.291-14.431-92.82c-1.717-9.44-2.955-16.271-3.363-19.334
		c-1.817-13.64-10.703-17.422-11.084-17.585l-37.686-15.903c-0.214-0.095-0.397-0.246-0.531-0.448
		c-0.744-1.118-2.047-1.69-3.299-1.456c-0.148,0.027-0.294,0.072-0.435,0.114c-0.011,0.005-0.131,0.062-0.131,0.062
		c-0.142,0.063-0.203,0.083-0.249,0.107l-0.73-0.969l0.619,1.041c-0.097,0.051-0.184,0.11-0.267,0.174l-0.098,0.085
		c-0.069,0.055-0.14,0.119-0.208,0.188l-0.954-0.751l0,0l0.864,0.839c-0.082,0.102-0.178,0.205-0.25,0.315
		c-0.097,0.137-0.156,0.234-0.211,0.34c-0.002,0.008-0.056,0.128-0.062,0.139c-0.05,0.092-0.078,0.186-0.12,0.278l-0.043,0.128
		c-0.033,0.122-0.074,0.254-0.096,0.396c-0.037,0.249-0.155,0.481-0.332,0.653l-14.903,15.06
		c3.633,1.656,11.408,6.577,14.452,19.297c0.688,2.902,2.71,9.87,5.273,18.717l10.878,38.328c1.437,9.047,3.931,18.524,7.413,28.29
		l1.251,5.115c0.154,0.596,0.296,1.207,0.44,1.808l1.699,7.296c0.128,0.571,0.261,1.14,0.391,1.717l4.256,21.404l1.291,8.994
		c0.036,0.314,0.072,0.626,0.108,0.941l0.619,10.833l-0.037,1.219c-0.019,0.395-0.042,0.78-0.072,1.154
		c-0.752,9.297-2.011,20.378-3.733,32.918l9.399,12.122c0.707,0.889,1.319,1.686,1.932,2.444l6.253,7.811
		c1.978,2.444,3.463,4.257,4.33,5.324c0.281,0.333,0.35,0.78,0.197,1.192c-0.146,0.412-0.514,0.691-0.932,0.776
		c-0.952,0.148-1.922,0.324-2.901,0.505c-7.156,1.326-14.695,3.207-22.415,5.595l-0.659,0.207c-0.591,0.178-1.194,0.368-1.798,0.559
		c-0.633,0.206-1.315-0.144-1.521-0.777l-1.573-4.813c-0.053-0.16-0.07-0.328-0.057-0.486l0.025-0.261
		c0.027-0.229,2.279-13.136,4.526-29.341c0.174-1.194,0.337-2.396,0.491-3.627l0.365-2.699c0-0.026-0.001-0.039,0.01-0.057
		l2.735-24.254c0.107-1.198,0.22-2.386,0.313-3.571c1.791-22.154-18.361-91.82-28.059-125.29
		c-2.677-9.257-4.604-15.936-5.327-18.956c-3.209-13.422-12.41-16.228-12.793-16.345l-38.971-11.782
		c-0.226-0.069-0.436-0.193-0.587-0.38c-0.848-1.042-2.183-1.469-3.387-1.095c-0.144,0.037-0.269,0.096-0.394,0.156
		c-0.01,0.005-0.147,0.066-0.157,0.071c-0.056,0.03-0.133,0.083-0.224,0.145c-0.025,0.013-0.084,0.051-0.104,0.062
		c-0.078,0.061-0.187,0.151-0.282,0.255c-0.146,0.155-0.221,0.234-0.281,0.305l-0.077,0.113c-0.057,0.089-0.104,0.16-0.153,0.239
		l-0.071,0.135c-0.049,0.092-0.079,0.172-0.115,0.25l-0.065,0.172c-0.032,0.076-0.055,0.167-0.076,0.262l-1.217-0.129l0,0
		l1.182,0.272c-0.027,0.145-0.049,0.287-0.061,0.437c-0.009,0.24-0.114,0.485-0.259,0.68l-24.906,31.414
		c-0.022,0.032-1.241,1.567-2.125,4.346c3.446,2.911,6.241,6.793,8.305,11.547c1.232,2.848,5.037,10.532,9.859,20.252
		c19.361,39.07,55.41,111.8,57.644,134.84c0.313,3.277,0.5,6.635,0.546,9.983c14.407,14.573,27.023,23.202,27.15,23.292
		c0.081,0.054,0.168,0.12,0.229,0.198l0.178,0.199c0.116,0.122,0.197,0.273,0.248,0.43l1.644,5.043
		c0.201,0.623-0.133,1.283-0.745,1.518c-0.797,0.293-1.599,0.589-2.421,0.882c-9.745,3.634-19.909,8.087-30.197,13.228l-1.498,0.751
		c-0.064,0.027-0.109,0.053-0.171,0.072c-0.169,0.051-0.345,0.124-0.513,0.213l-0.146,0.07c-0.591,0.301-1.31,0.077-1.622-0.513
		l-3.523-6.627c-0.078-0.146-0.127-0.311-0.137-0.476l-0.023-0.267c-0.017-0.202,0.02-0.416,0.104-0.604
		c0.062-0.138,6.409-14.288,6.445-35.867c0.005-1.229-0.016-2.483-0.051-3.763l-0.025-0.527c-0.014-0.345-0.027-0.651-0.041-0.898
		c-0.001-0.039-0.007-0.075-0.002-0.116c-0.049-0.901-0.094-1.758-0.157-2.638l-0.036-0.399c-0.061-0.899-0.132-1.808-0.223-2.726
		c-2.133-22.114-39.287-97.083-57.146-133.108c-5.052-10.191-8.691-17.539-9.965-20.475c-1.639-3.794-3.816-6.909-6.452-9.278
		c-0.032-0.036-0.064-0.071-0.093-0.101c-0.005-0.01-1.085-1.184-2.903-2.148c-0.052-0.025-0.12-0.053-0.167-0.094
		c-0.196-0.11-0.345-0.207-0.501-0.281l-0.207-0.118c-0.01,0.005-0.117-0.062-0.117-0.062l0.362-1.171l-0.563,1.076
		c-2.42-1.264-4.293-1.56-4.647-1.601l-40.215-4.44c-0.248-0.025-0.485-0.127-0.662-0.288c-1.005-0.861-2.378-1.038-3.482-0.452
		c-1.109,0.589-1.719,1.821-1.569,3.137c0.02,0.244-0.026,0.489-0.126,0.707l-18.778,35.736l-0.024-0.007l-0.007,0.011l0,0
		c-0.001,0.034-0.011,0.065-0.03,0.101c-0.02,0.037-0.024,0.078-0.047,0.11l-0.059,0.122c-0.002,0.008-0.004,0.029-0.011,0.04
		c-0.012,0.026-0.029,0.054-0.04,0.073c-0.258,0.581-0.976,2.437-1.186,5.145c-0.002,0.033,0.001,0.064-0.011,0.103
		c-0.02,0.22-0.033,0.501-0.04,0.797c0.006,0.023,0.001,0.038,0.002,0.051c-0.011,0.312-0.011,0.632-0.002,0.954
		c0.027,0.998,0.104,1.94,0.259,2.882l0.083,0.413l-0.011,0.005c0.02,0.049,0.025,0.097,0.033,0.146
		c0.062,0.339,0.138,0.69,0.219,1.038c0.097,0.392,0.19,0.727,0.278,1.078l0.051,0.143c0.096,0.341,0.193,0.647,0.302,0.974
		l0.108,0.302c0.094,0.289,0.2,0.572,0.323,0.865c0.057,0.133,0.107,0.276,0.168,0.414c0.136,0.332,0.235,0.566,0.339,0.798
		l0.337,0.721c0.085,0.184,0.174,0.364,0.266,0.55c0.092,0.173,0.189,0.356,0.284,0.535l0.426,0.777
		c0.246,0.437,0.525,0.889,0.816,1.34c0.124,0.195,0.264,0.422,0.41,0.67c0.16,0.241,0.321,0.507,0.506,0.807
		c0.342,0.581,0.742,1.249,1.185,2.006c0.833,1.409,1.822,3.121,2.949,5.093c1.791,3.111,3.926,6.869,6.341,11.131
		c19.879,34.952,61.243,107.681,78.376,121.822l0.184,0.15c1.618,1.325,3.276,2.616,5.079,3.934
		c1.037,0.761,2.073,1.495,3.103,2.193c18.161,12.368,33.697,15.049,33.854,15.063c0.201,0.036,0.392,0.124,0.555,0.247l0.21,0.176
		c0.132,0.099,0.233,0.228,0.313,0.38l3.534,6.647c0.292,0.549,0.116,1.236-0.412,1.582c-0.091,0.061-0.177,0.121-0.268,0.195
		c-0.052,0.035-0.102,0.066-0.167,0.102l-1.855,1.051c-10.156,5.732-19.655,11.754-28.224,17.895
		c-0.701,0.51-1.403,1.008-2.081,1.51c-0.528,0.393-1.279,0.283-1.671-0.234l-3.311-4.24c-0.101-0.129-0.183-0.281-0.22-0.438
		l-0.073-0.26c-0.02-0.1-0.025-0.195-0.026-0.307c0.002-0.158-0.111-15.734-4.243-36.108c-2.558-1.805-5.076-3.708-7.455-5.678
		c-17.852-14.744-57.986-85.296-79.539-123.201c-5.576-9.815-9.614-16.906-11.268-19.502c-2.714-4.258-4.356-8.625-4.898-12.994
		c-3.024-0.989-5.177-0.816-5.207-0.813l-39.984,3.075c-0.255,0.012-0.504-0.039-0.715-0.167c-0.134-0.066-0.257-0.138-0.397-0.194
		c0,0-0.135-0.045-0.14-0.042c-0.092-0.037-0.183-0.073-0.273-0.096l-0.119-0.028c-0.137-0.024-0.217-0.041-0.312-0.048
		l-0.168-0.022c-0.078-0.011-0.178-0.017-0.273,0.002l-0.152-0.004c-0.093,0.01-0.188,0.015-0.29,0.043
		c-0.016-0.005-0.106,0.01-0.117,0.016c-0.138,0.021-0.273,0.062-0.403,0.111c-0.166,0.068-0.258,0.104-0.35,0.153l-0.686-0.998
		l0.57,1.072c-0.114,0.068-0.233,0.138-0.339,0.233c-0.988,0.792-1.374,2.14-0.986,3.421c0.065,0.233,0.061,0.47-0.013,0.699
		l-12.026,38.879c-0.132,0.403-2.946,9.59,6.394,19.759c2.09,2.288,6.547,7.628,12.715,15.022
		c22.336,26.75,68.806,82.433,88.178,93.335c1.02,0.581,2.057,1.158,3.1,1.732l1.018,0.554c0.704,0.391,1.415,0.782,2.135,1.169
		l14.829,7.733l2.382,1.205c1.323,0.662,2.579,1.279,3.797,1.891c1.117,0.555,2.209,1.088,3.282,1.621l6.614,3.203
		c0.011,0.006,0.016,0.004,0.019,0.01l17.135,8.033l-0.326,1.18l0.503-1.104l0.319,0.145l0.125,0.062l1.921,0.865
		c0.008,0.002,0.159,0.064,0.166,0.068l0.616,0.311c0.144,0.074,0.276,0.188,0.371,0.318l3.155,4.045
		c0.412,0.518,0.315,1.281-0.206,1.688c-0.688,0.533-1.351,1.076-2.016,1.605c-6.285,5.064-12.077,10.27-17.185,15.482
		c-0.707,0.709-1.389,1.424-2.052,2.129c-0.296,0.301-0.739,0.438-1.156,0.34c-0.418-0.098-0.756-0.414-0.877-0.824l-0.124-0.43
		c-0.779-2.621-2.073-6.857-3.753-12.227l-0.742-2.379l-0.059-0.17l-6.052-18.564c-11.364-5.584-21.24-10.736-29.382-15.314
		c-0.345-0.195-0.7-0.411-1.064-0.628l-0.345-0.22c-0.249-0.162-0.498-0.311-0.754-0.475l-1.133-0.768
		c-0.162-0.097-0.314-0.211-0.477-0.333l-1.152-0.817c-0.281-0.222-0.542-0.404-0.8-0.598l-1.701-1.321
		c-0.383-0.305-0.77-0.615-1.169-0.937l-0.124-0.097c-0.435-0.351-0.877-0.728-1.33-1.101l-0.278-0.243
		c-0.351-0.303-0.711-0.601-1.075-0.917l-3.305-2.927c-0.324-0.292-0.657-0.598-0.984-0.906l-1.928-1.786
		c-0.475-0.452-0.947-0.899-1.422-1.351c-1.095-1.056-2.142-2.078-3.207-3.123l-3.551-3.539c-0.454-0.463-0.872-0.88-1.285-1.313
		l-2.018-2.065c-1.669-1.729-3.379-3.521-5.11-5.353l-7.001-7.563c0,0-0.124-0.136-0.127-0.142
		c-2.369-2.589-4.749-5.225-7.126-7.907l-1.755-1.963c-0.008-0.016-0.074-0.091-0.077-0.096c-2.723-3.354-5.524-6.562-8.331-9.512
		l-4.524-5.221c-1.345-1.561-2.68-3.115-4.002-4.669l-4.17-4.912l-0.098-0.099l-18.133-21.594
		c-5.887-7.073-10.546-12.646-12.562-14.842c-8.842-9.639-8.577-18.847-7.912-22.774l-20.815,3.929
		c-0.253,0.049-0.5,0.018-0.724-0.085c-0.136-0.059-0.271-0.104-0.408-0.142l-0.125-0.038c-0.093-0.016-0.187-0.044-0.29-0.055
		c-0.008-0.002-0.129-0.023-0.143-0.022c-0.119-0.014-0.227-0.022-0.351-0.021c-0.186-0.006-0.317,0.018-0.458,0.035
		c-0.212,0.041-0.305,0.063-0.402,0.09l-0.117,0.036c-0.104,0.037-0.191,0.07-0.288,0.121c-0.016,0.008-0.188,0.087-0.204,0.095
		c0.025-0.013-0.015,0.021-0.066,0.048l-0.186,0.118c-0.139,0.107-0.263,0.205-0.373,0.316c-0.895,0.906-1.138,2.3-0.628,3.543
		c0.087,0.227,0.109,0.463,0.069,0.693l-7.891,40.119c-0.087,0.425-1.93,9.903,8.374,19.039c2.306,2.055,7.263,6.89,14.133,13.59
		c17.12,16.706,45.76,44.665,68.884,63.893c12.576,10.463,22.033,17.1,28.105,19.725c2.657,1.145,5.498,2.342,8.466,3.541
		c5.889,2.402,12.463,4.941,19.543,7.57c10.47,3.879,19.88,7.137,25.917,9.178l1.735,0.578c1.604,0.549,2.731,0.916,3.381,1.131
		c0.382,0.131,0.673,0.432,0.791,0.814c0.107,0.385,0.021,0.803-0.238,1.111c-0.596,0.721-1.17,1.43-1.728,2.123
		c-4.255,5.336-7.846,10.643-10.655,15.789c-0.183,0.332-0.504,0.562-0.878,0.617c-0.375,0.057-0.757-0.061-1.031-0.318L213.667,352
		c-0.124-0.123-0.215-0.27-0.281-0.43c-1.298-3.275-3.701-8.496-7.544-16.389c-5.63-2.074-10.958-4.098-15.825-6.012
		c-5.27-2.07-10.156-4.072-14.528-5.975c-2.901-1.25-6.488-3.309-10.643-6.131c-24.275-16.436-64.057-55.263-87.826-78.466
		c-6.616-6.458-11.788-11.497-14.008-13.467c-10.243-9.095-10.483-18.772-10.146-22.409c-3.618,0.312-4.946-0.078-5.646-0.424
		c-1.094-0.535-2.088-0.625-2.8-0.247c-0.732,0.389-0.938,1.118-0.803,1.373c0.108,0.203,0.318,0.659,0.622,1.339
		C49.882,217.564,56.328,227.555,63.387,234.527z M415.912,406.4c-4.446,1.627-9.214,3.541-14.164,5.691
		c-0.314,0.133-0.667,0.133-0.978-0.01c-0.31-0.141-0.554-0.402-0.657-0.732l-21.668-66.65c-0.181-0.562,0.064-1.17,0.583-1.445
		c0.04-0.021,0.094-0.043,0.143-0.062c0.822-0.307,1.642-0.605,2.446-0.896c5.52-1.975,10.922-3.652,16.047-4.982
		c0.851-0.217,1.706-0.436,2.53-0.641c0.317-0.076,0.646-0.023,0.924,0.156c0.274,0.172,0.472,0.445,0.542,0.762l15.019,67.406
		C416.812,405.59,416.483,406.189,415.912,406.4z M428.536,334.189l11.119,64.293c0.116,0.65-0.316,1.271-0.968,1.395l-0.891,0.168
		c-0.069,0.016-0.141,0.016-0.219,0.018c-4.1,0.816-8.628,2.004-13.476,3.537c-0.325,0.102-0.673,0.059-0.972-0.109
		c-0.29-0.166-0.509-0.453-0.573-0.785l-14.788-66.373c-0.062-0.326-0.007-0.662,0.18-0.938c0.114-0.166,0.268-0.307,0.44-0.398
		c0.107-0.057,0.232-0.104,0.358-0.125c0.878-0.152,1.744-0.301,2.584-0.428c5.757-0.9,11.155-1.324,16.034-1.264
		C427.936,333.197,428.434,333.617,428.536,334.189z M392.46,267.566c-0.079-0.343,0.001-0.697,0.191-0.976
		c0.11-0.149,0.259-0.274,0.417-0.358c0.137-0.073,0.296-0.118,0.457-0.133c0.902-0.082,1.771-0.165,2.631-0.23l1.154-0.085
		c6.645-0.446,12.896-0.333,18.572,0.355c0.529,0.064,0.96,0.468,1.048,0.989l10.254,59.292c0.07,0.355-0.028,0.709-0.264,0.988
		c-0.228,0.271-0.562,0.43-0.925,0.434c-4.918,0.012-10.311,0.484-15.989,1.396c-0.824,0.133-1.663,0.271-2.522,0.434
		c-0.641,0.121-1.262-0.287-1.402-0.932L392.46,267.566z M355.982,275.594c-0.098-0.307-0.072-0.64,0.069-0.924
		c0.113-0.217,0.295-0.404,0.514-0.521c0.061-0.032,0.132-0.057,0.198-0.08c0.836-0.269,1.662-0.518,2.475-0.78
		c7.915-2.439,15.662-4.334,23.024-5.625c0.87-0.156,1.725-0.303,2.574-0.435c0.632-0.101,1.231,0.304,1.374,0.928l13.768,61.853
		c0.148,0.646-0.254,1.289-0.889,1.445c-0.822,0.195-1.654,0.408-2.496,0.629c-5.3,1.367-10.864,3.1-16.552,5.139
		c-0.799,0.287-1.599,0.576-2.418,0.875c-0.306,0.123-0.652,0.098-0.949-0.043c-0.295-0.139-0.525-0.4-0.626-0.713L355.982,275.594z
		 M314.196,293.293c-0.153-0.289-0.185-0.617-0.089-0.93c0.097-0.307,0.303-0.559,0.577-0.705c0.015-0.008,0.025-0.014,0.03-0.016
		c0.773-0.385,1.549-0.779,2.32-1.17c9.87-4.919,19.65-9.199,29.058-12.707c0.825-0.301,1.642-0.605,2.451-0.898
		c0.307-0.111,0.638-0.091,0.944,0.045c0.29,0.152,0.521,0.401,0.616,0.717l20.19,62.118c0.191,0.604-0.1,1.26-0.693,1.492
		c-0.781,0.322-1.584,0.664-2.385,1c-5.879,2.5-12,5.367-18.198,8.52c-0.776,0.393-1.529,0.779-2.3,1.184
		c-0.577,0.301-1.312,0.07-1.623-0.514l-30.904-58.133L314.196,293.293z M348.724,358.242c-0.154-0.291-0.186-0.619-0.087-0.926
		c0.093-0.303,0.3-0.564,0.574-0.709c0.01-0.006,0.016-0.01,0.016-0.01c0.773-0.396,1.55-0.789,2.317-1.186
		c5.832-2.957,11.594-5.654,17.126-8.021c0.811-0.34,1.614-0.682,2.404-1.012c0.316-0.127,0.67-0.127,0.975,0.018
		s0.536,0.406,0.642,0.729l21.807,67.033c0.187,0.586-0.091,1.217-0.642,1.469c-3.421,1.592-6.982,3.309-10.574,5.107
		c-0.582,0.291-1.305,0.061-1.612-0.52L348.724,358.242z M338.697,448.311c-0.022,0.338-0.19,0.648-0.458,0.869
		c-4.099,3.236-7.697,6.395-10.729,9.402c-0.053,0.061-0.091,0.113-0.146,0.17l-0.402,0.408c-0.46,0.473-1.223,0.486-1.702,0.025
		l-46.512-44.643c-0.418-0.406-0.49-1.033-0.186-1.527c2.599-4.107,5.907-8.398,9.845-12.723c0.577-0.633,1.166-1.266,1.792-1.918
		c0.085-0.098,0.188-0.172,0.306-0.234c0.173-0.092,0.363-0.141,0.566-0.137c0.34-0.012,0.655,0.127,0.877,0.373l46.421,49.025
		C338.596,447.641,338.728,447.975,338.697,448.311z M358.351,434.602c-0.057,0.336-0.263,0.635-0.544,0.816
		c-4.545,2.9-8.795,5.766-12.658,8.549c-0.487,0.357-1.162,0.293-1.58-0.15l-47.217-49.859c-0.226-0.238-0.336-0.545-0.328-0.875
		c0.004-0.322,0.148-0.627,0.387-0.854c0.626-0.58,1.271-1.156,1.93-1.748c3.951-3.549,8.322-7.105,13.013-10.59
		c0.685-0.516,1.389-1.033,2.1-1.547c0.054-0.035,0.097-0.064,0.144-0.09c0.513-0.271,1.152-0.137,1.524,0.33l43,55.068
		C358.317,433.914,358.401,434.268,358.351,434.602z M376.188,423.121c0.308,0.58,0.097,1.301-0.47,1.619
		c-3.623,2.031-7.177,4.098-10.557,6.123c-0.517,0.326-1.195,0.189-1.575-0.293l-43.286-55.443c-0.21-0.262-0.291-0.609-0.239-0.943
		c0.045-0.33,0.241-0.625,0.521-0.811c0.718-0.48,1.45-0.955,2.177-1.439c5.168-3.373,10.741-6.74,16.566-10.006
		c0.755-0.422,1.513-0.836,2.272-1.26c0.005-0.004,0.01-0.006,0.015-0.008c0.285-0.152,0.615-0.184,0.919-0.092
		c0.307,0.1,0.568,0.311,0.718,0.592L376.188,423.121z M275.062,316.584c0.036-0.326,0.217-0.625,0.485-0.82
		c0.686-0.502,1.397-1.016,2.105-1.523c8.284-5.916,17.412-11.729,27.152-17.238c0.749-0.432,1.508-0.855,2.267-1.27
		c0.009-0.006,0.015-0.008,0.02-0.012c0.286-0.15,0.599-0.188,0.913-0.1c0.307,0.098,0.568,0.311,0.721,0.594l30.906,58.139
		c0.311,0.586,0.097,1.312-0.485,1.629c-0.668,0.361-1.312,0.723-1.967,1.084l-0.292,0.162c-6.186,3.459-12.104,7.027-17.584,10.621
		c-0.726,0.477-1.45,0.953-2.157,1.426c-0.517,0.354-1.239,0.234-1.625-0.258l-40.221-51.523
		C275.099,317.229,275.012,316.904,275.062,316.584z M247.255,340.453c0.59-0.621,1.185-1.256,1.805-1.893
		c5.175-5.348,11.068-10.705,17.527-15.918c0.674-0.549,1.351-1.092,2.036-1.631c0.061-0.047,0.119-0.084,0.18-0.117
		c0.224-0.117,0.462-0.16,0.718-0.133c0.318,0.033,0.603,0.201,0.808,0.465l40.008,51.244c0.208,0.256,0.299,0.584,0.25,0.912
		c-0.041,0.328-0.227,0.615-0.49,0.809c-0.711,0.514-1.394,1.021-2.08,1.523c-4.839,3.596-9.352,7.268-13.415,10.914
		c-0.648,0.572-1.282,1.158-1.897,1.732c-0.488,0.443-1.249,0.424-1.712-0.055l-43.731-46.199
		C246.823,341.643,246.814,340.922,247.255,340.453z M229.016,365.609c2.705-5.318,6.285-10.83,10.669-16.389
		c0,0,0.117-0.148,0.12-0.156c0.527-0.664,1.075-1.34,1.658-2.047c0.099-0.119,0.225-0.227,0.363-0.299
		c0.152-0.08,0.339-0.135,0.529-0.145c0.348-0.01,0.679,0.121,0.914,0.381l43.313,45.744c0.442,0.463,0.442,1.199-0.002,1.666
		c-0.613,0.639-1.189,1.258-1.762,1.875c-3.901,4.246-7.245,8.482-9.941,12.59c-0.198,0.301-0.519,0.498-0.875,0.537
		c-0.365,0.037-0.721-0.08-0.977-0.328l-43.772-42.016C228.883,366.658,228.778,366.082,229.016,365.609z"/>
	<path d="M454.916,422.615c-15.255,3.711-34.991,11.693-58.693,23.713c-0.58,0.295-1.152,0.592-1.696,0.883l-0.147,0.078
		c-0.601,0.318-1.178,0.631-1.752,0.951c-0.626,0.318-1.209,0.621-1.809,0.941l-0.147,0.078c-0.555,0.295-1.111,0.598-1.681,0.912
		c-23.221,12.926-40.874,24.828-52.48,35.389c-0.04,0.061-0.085,0.111-0.146,0.156c-2.841,2.605-5.248,5.072-7.165,7.344
		l13.445,25.293c0.154,0.291,15.533,28.789,42.599,38.557c15.557,5.605,32.43,5.846,47.517,0.676
		c0.028-0.008,0.09-0.027,0.126-0.033c0.011-0.006,0.112-0.035,0.123-0.039c4.82-1.547,9.622-3.584,14.25-6.043l0.178-0.096
		l0.168-0.088c4.638-2.467,9.002-5.301,12.99-8.426l0.101-0.092c12.827-9.691,22.058-23.814,26.113-39.846
		c7.046-27.902-7.977-56.59-8.131-56.881l-13.446-25.291c-2.963,0.316-6.356,0.939-10.096,1.832
		C455.061,422.604,454.983,422.617,454.916,422.615z"/>
</g>
</svg>
