<svg xmlns="http://www.w3.org/2000/svg" xmlns:xlink="http://www.w3.org/1999/xlink" version="1.1" x="0px" y="0px" viewBox="0 0 100 100" enable-background="new 0 0 100 100" xml:space="preserve"><g><path d="M36.149,10.73L58.436,6.5l2.997,14.801l0.857,13.594l1.714-1.208l12.425-3.927L87,25.531l8,22.958l-12.842,4.654   l-10.286,2.897l-3.429,2.54l6.418,9.668l10.534,13.97L65.117,94.483l-9.685-14.152l-6.146-11.782l-3.283,3.322l-6.292,11.783   l-7.853,10.271L12.721,78.82l8.133-9.062l7.003-12.085l-12.286-5.559L5,48.489l6.857-22.958l11.714,3.199l10.146,5.561l5.142,0.851   l-0.285-10.818L36.149,10.73z"></path></g></svg>