<svg xmlns="http://www.w3.org/2000/svg" xmlns:xlink="http://www.w3.org/1999/xlink" version="1.1" x="0px" y="0px" viewBox="-5 -5 100 100" enable-background="new -5 -5 100 100" xml:space="preserve"><path d="M84.116,22.741L61.321,35.713c-0.197-0.346-0.405-0.69-0.625-1.018l21.922-14.394c-0.82-1.246-1.7-2.448-2.635-3.604  L59.596,33.191c-0.188-0.233-0.381-0.46-0.58-0.683l-0.01-0.009l-0.013-0.017l-0.008-0.009l-0.015-0.014l-0.008-0.011l-0.013-0.014  l-0.009-0.011l-0.013-0.015l-0.008-0.009l-0.015-0.015l-0.008-0.009l-0.013-0.015l-0.01-0.011l-0.014-0.014l-0.008-0.009  l-0.014-0.015L58.827,32.3l-0.015-0.015l-0.008-0.009l-0.014-0.015L58.78,32.25l-0.013-0.015l-0.008-0.011l-0.015-0.014L58.735,32.2  l-0.014-0.015l-0.009-0.01l-0.014-0.014l-0.008-0.011l-0.014-0.014l-0.01-0.011l-0.014-0.014l-0.008-0.01l-0.014-0.015l-0.009-0.009  l-0.014-0.014l-0.008-0.011l-0.015-0.014l-0.008-0.009l-0.014-0.015l-0.009-0.008l-0.014-0.017l-0.008-0.008l-0.015-0.014  l-0.008-0.011l-0.015-0.014l-0.01-0.011l-0.013-0.014l-0.011-0.008l-0.013-0.016l-0.009-0.008l-0.015-0.014l-0.008-0.009  l-0.014-0.015l-0.009-0.008l-0.014-0.017l-0.009-0.008l-0.014-0.015l-0.009-0.008l-0.015-0.015l-0.008-0.009L58.3,31.749  l-0.011-0.008l-0.014-0.015l-0.008-0.008l-0.015-0.016l-0.009-0.008l-0.014-0.014l-0.009-0.009l-0.038-0.039l-0.01-0.008  l-0.015-0.015l-0.01-0.008c-0.213-0.21-0.432-0.411-0.654-0.613l17.448-19.576C66.987,4.313,56.499,0,45.001,0  C20.147,0,0,20.147,0,45.001C0,53.1,2.139,60.698,5.884,67.263l22.797-12.974c0.197,0.342,0.406,0.685,0.625,1.018L7.383,69.702  c0.82,1.245,1.7,2.448,2.635,3.604L30.406,56.81c0.187,0.231,0.38,0.459,0.579,0.683l0.009,0.011l0.013,0.014l0.008,0.011  l0.015,0.014l0.008,0.012l0.013,0.013l0.01,0.011l0.013,0.015l0.032,0.035l0.014,0.014l0.008,0.011l0.014,0.014l0.009,0.011  l0.013,0.014l0.032,0.035l0.014,0.014l0.009,0.011l0.013,0.014l0.008,0.01l0.015,0.015l0.054,0.06l0.014,0.013l0.009,0.012  l0.014,0.013l0.092,0.098l0.009,0.009l0.014,0.015l0.008,0.009l0.015,0.014l0.008,0.011l0.015,0.014l0.009,0.011l0.013,0.013  l0.011,0.011l0.013,0.014l0.01,0.009l0.015,0.014l0.008,0.011l0.038,0.038l0.011,0.009l0.013,0.014l0.009,0.011l0.015,0.013  l0.008,0.011l0.014,0.014l0.011,0.009l0.013,0.014l0.009,0.01l0.015,0.014l0.009,0.011l0.014,0.013l0.009,0.011l0.014,0.013  l0.011,0.01l0.013,0.015l0.009,0.01l0.015,0.014l0.01,0.01c0.217,0.209,0.437,0.414,0.654,0.612L15.061,78.593  C23.016,85.688,33.503,90,45.001,90C69.854,90,90,69.855,90,45.001C90,36.902,87.86,29.305,84.116,22.741z M45.001,58.847  c-7.648,0-13.846-6.198-13.846-13.846c0-7.648,6.198-13.846,13.846-13.846c7.645,0,13.846,6.198,13.846,13.846  C58.847,52.649,52.646,58.847,45.001,58.847z"></path><path d="M45.001,42.875c1.174,0,2.126,0.952,2.126,2.126c0,1.174-0.952,2.126-2.126,2.126c-1.174,0-2.126-0.952-2.126-2.126  C42.875,43.827,43.827,42.875,45.001,42.875z"></path></svg>