<svg xmlns="http://www.w3.org/2000/svg" xmlns:xlink="http://www.w3.org/1999/xlink" xmlns:sketch="http://www.bohemiancoding.com/sketch/ns" viewBox="0 0 96 96" version="1.1" x="0px" y="0px"><title>camera1</title><desc>Created with Sketch.</desc><g stroke="none" stroke-width="1" fill="none" fill-rule="evenodd" sketch:type="MSPage"><g sketch:type="MSLayerGroup" fill="#000000"><path d="M65.3146687,42 L88,42 L88,26 L48,26 L48,30 L8,30 L8,42 L42.6853313,42 C45.7767836,39.4984003 49.7134067,38 54,38 C58.2865933,38 62.2232164,39.4984003 65.3146687,42 Z M4,30.0098932 C4,27.7952903 5.79642476,26 8.00002553,26 L44,26 L44,22 L87.9901068,22 C90.2047097,22 92,23.7899577 92,25.9940093 L92,70.0059907 C92,72.2118211 90.2022898,74 87.9901533,74 L8.00984669,74 C5.79526951,74 4,72.2059475 4,69.9901068 L4,30.0098932 Z M54,70 C61.7319865,70 68,63.7319865 68,56 C68,48.2680135 61.7319865,42 54,42 C46.2680135,42 40,48.2680135 40,56 C40,63.7319865 46.2680135,70 54,70 Z M27,22 L39,22 L39,26 L27,26 L27,22 Z M14,22 L24,22 L24,26 L14,26 L14,22 Z M72,28 L86,28 L86,38 L72,38 L72,28 Z M54,36 C56.209139,36 58,34.209139 58,32 C58,29.790861 56.209139,28 54,28 C51.790861,28 50,29.790861 50,32 C50,34.209139 51.790861,36 54,36 Z" sketch:type="MSShapeGroup"></path></g></g></svg>