<?xml version="1.0" encoding="utf-8"?>
<!-- Generator: Adobe Illustrator 16.0.3, SVG Export Plug-In . SVG Version: 6.00 Build 0)  -->
<!DOCTYPE svg PUBLIC "-//W3C//DTD SVG 1.1//EN" "http://www.w3.org/Graphics/SVG/1.1/DTD/svg11.dtd">
<svg version="1.1" id="Layer_1" xmlns="http://www.w3.org/2000/svg" xmlns:xlink="http://www.w3.org/1999/xlink" x="0px" y="0px"
	 width="576px" height="576px" viewBox="0 0 576 576" enable-background="new 0 0 576 576" xml:space="preserve">
<path d="M123.678,555.115c4.941,4.322,10.499,6.176,16.674,6.176c6.176,0,12.969-2.472,17.909-8.028
	c66.695-74.105,103.749-146.976,121.04-188.97c7.411,0,14.821-0.616,22.231-1.852c-0.617,14.821-2.471,31.494-4.323,49.403
	c-8.646,68.548-21.614,117.951-21.614,118.568c-3.705,12.97,4.323,25.938,17.292,29.643c1.853,0.617,4.322,0.617,6.175,0.617
	c10.499,0,20.379-6.793,23.468-17.908c0.617-1.854,14.203-53.727,22.23-124.745c6.176-52.49,5.56-94.484,4.941-114.245
	c0-1.235,0-2.471,0-3.706c0-11.732-0.617-23.466-2.471-35.817c13.585,7.411,26.555,11.116,37.671,11.116
	c6.793,0,13.586-1.235,19.761-4.322c38.905-17.292,35.2-75.958,29.643-118.569c-1.854-13.586-14.203-22.85-27.789-20.997
	c-13.586,1.853-22.85,14.204-20.997,27.79c6.793,49.403,0.618,64.225-1.235,67.313c-3.089,0-17.291-2.471-46.934-28.408
	c-3.087-3.087-35.199-38.905-45.081-44.463c-8.028-4.94-16.673-6.793-25.319-6.175c11.116,7.411,16.057,21.614,10.499,34.583
	c-6.176,16.056-12.351,33.964-16.056,48.786c3.706-3.705,8.646-6.793,12.968-11.116c11.733-10.498,29.643-9.263,40.141,2.47
	c4.939,5.558,7.41,12.968,6.792,20.379c0,7.41-3.704,14.204-9.263,19.144c-17.291,15.438-32.112,25.937-44.463,31.495
	c-9.263,4.323-17.291,6.175-25.319,6.175c-0.617,0-0.617,0-1.235,0c-0.617,14.821-2.471,26.556-3.705,35.2
	c-13.586,35.2-48.169,109.924-116.099,185.264C111.944,529.796,112.562,545.234,123.678,555.115z"/>
<path d="M259.538,151.858c-5.558-1.852-11.115-1.852-16.056,0c-4.941,1.853-9.263,6.176-11.116,11.116
	c0,0.618-9.263,22.232-16.056,46.316c-8.028,27.79-14.204,61.755,6.793,77.193c11.116,7.411,24.702,7.411,40.757,0
	c11.734-5.558,25.32-16.056,42.61-30.877c3.706-3.705,6.177-8.646,6.793-14.203c0.618-5.558-1.234-10.499-4.939-14.821
	c-3.706-4.323-9.882-6.793-15.438-6.793c-4.94,0-9.881,1.235-13.586,4.94c-8.029,6.793-15.439,12.969-21.614,17.291l-7.411,5.558
	l1.853-9.264c3.704-16.673,11.115-40.14,19.143-59.902C275.594,167.914,270.653,155.563,259.538,151.858z"/>
<circle cx="274.359" cy="72.195" r="58.667"/>
<g>
	<g>
		<path d="M356.493,96.897l-3.089,10.498l-1.853,8.028l-0.617,1.853c-1.234,3.087,0.617,6.793,3.705,8.028
			c3.705,1.235,8.028-0.618,9.265-4.941c-1.236,3.706,1.234,7.411,4.939,8.646c3.704,1.235,8.028-1.235,8.646-4.941
			c-1.235,4.323,1.854,8.028,6.176,8.646c3.704,0,6.792-2.469,7.41-5.558l0.618-1.852c2.47-9.263,11.732-14.821,20.996-12.351
			c4.321,1.235,7.411,3.088,9.881,6.176c8.027,9.881,22.23,11.116,31.494,3.087c9.264-7.41,16.057-17.908,18.526-30.259
			c4.941-26.555-11.116-53.109-37.052-60.52c-29.024-8.028-59.285,9.264-66.078,38.288c-0.617,4.323-1.235,8.646-1.235,12.968l0,0
			c0,1.235-0.618,2.47-0.618,3.706C366.373,91.957,361.433,96.279,356.493,96.897L356.493,96.897z M378.726,74.665
			c1.851-6.793,8.644-11.116,15.438-9.263c6.793,1.853,11.115,8.646,9.263,15.438c-1.852,6.793-8.645,11.116-15.438,9.263
			C381.194,88.869,376.872,82.075,378.726,74.665z"/>
	</g>
</g>
</svg>
