<svg xmlns="http://www.w3.org/2000/svg" xmlns:xlink="http://www.w3.org/1999/xlink" version="1.1" x="0px" y="0px" viewBox="0 0 100 100" enable-background="new 0 0 100 100" xml:space="preserve"><g><path d="M45.817,97.742c-10.633,0-19.361-3.311-22.113-7.956c0.567,5.413,10.25,9.722,22.113,9.722   c11.862,0,21.545-4.309,22.112-9.722C65.177,94.432,56.448,97.742,45.817,97.742z"></path><path d="M49.641,75.685c0,0,0.002,6.86,0.002,6.869h-0.885V69.53c-0.047-0.001-0.089-0.001-0.139-0.001   c-1.14-0.06-2.37-0.146-3.602-0.375c-0.621-0.097-1.226-0.242-1.865-0.401c-0.094-0.025-0.185-0.054-0.278-0.079v13.88h-0.882   v-6.869c-10.404,0.837-18.315,5.024-18.315,10.069c0,5.646,9.913,10.224,22.14,10.224c12.227,0,22.139-4.578,22.139-10.224   C67.956,80.709,60.044,76.521,49.641,75.685z"></path><path d="M66.815,4.661c-3.42-1.986-6.792-3.322-12.108-3.976S42.678,0.908,39.09,5.483c1.933-0.008,4.311,0.104,7.006,0.484   c-0.005,0.015-0.014,0.028-0.018,0.044L44.99,9.418c-3.332-0.424-6.093-0.42-7.957-0.326c-0.105,0.272-0.22,0.54-0.311,0.821   l-0.125,0.393c1.989,0.077,4.666,0.292,7.844,0.83l-1.093,3.427c-3.354-0.54-6.078-0.705-7.881-0.744l-0.406,1.263   c1.894,0.209,4.528,0.576,7.733,1.217l-1.086,3.404c-3.343-0.654-6.007-0.998-7.755-1.177l-0.42,1.304   c1.787,0.346,4.378,0.879,7.613,1.634l-1.077,3.374c-3.326-0.772-5.928-1.3-7.625-1.622l-0.422,1.31   c1.661,0.475,4.195,1.187,7.484,2.075l-1.075,3.367c-3.303-0.893-5.841-1.607-7.49-2.079l-0.414,1.288   c1.515,0.598,3.991,1.514,7.343,2.551l-1.078,3.377c-3.286-1.019-5.753-1.926-7.352-2.554l-0.394,1.227   c1.345,0.706,3.751,1.855,7.189,3.069l-1.08,3.384c-3.259-1.145-5.661-2.248-7.208-3.038l-0.361,1.124   c1.144,0.786,3.462,2.21,7.021,3.635l-1.084,3.397c-3.033-1.197-5.275-2.418-6.775-3.352c-0.041,0.416-0.067,0.83-0.072,1.243   c1.108,0.91,3.17,2.386,6.306,3.805l-1.091,3.418c-1.729-0.76-3.179-1.549-4.378-2.291c0.861,2.412,2.354,4.581,4.361,6.238   c0.217,0.179,0.45,0.343,0.677,0.51c4.043,2.191,10.08,3.385,17.341,3.385c0.358,0,0.721-0.003,1.09-0.009l1.333-3.838   c-0.341-0.003-0.697,0.004-1.032-0.005c-6.633-0.174-11.958-1.296-16.122-2.72c0.023-0.054,0.061-0.098,0.079-0.155l1.031-3.228   c4.294,1.482,10.002,2.632,17.271,2.584l0.476-1.368c-7.016-0.401-12.72-1.609-17.167-3.034l1.081-3.386   c4.403,1.417,10.148,2.635,17.292,2.954l0.478-1.375c-6.928-0.758-12.665-2.045-17.187-3.405l1.079-3.381   c4.493,1.352,10.24,2.644,17.208,3.36c0.029,0.002,0.057,0.013,0.086,0.017l0.479-1.378c-6.827-1.16-12.59-2.537-17.188-3.833   l1.079-3.377c4.53,1.276,10.204,2.633,16.887,3.762c0.135,0.023,0.261,0.063,0.383,0.114l0.498-1.434   c-0.119-0.003-0.238-0.018-0.356-0.046c-6.515-1.565-12.201-3.021-16.822-4.244l1.074-3.368c4.566,1.207,10.166,2.639,16.571,4.178   c0.383,0.092,0.702,0.306,0.937,0.586c0.903-1.022,2.208-1.652,3.629-1.652c0.542,0,1.079,0.091,1.595,0.271   c1.225,0.426,2.21,1.303,2.775,2.471c0.393,0.81,0.533,1.693,0.449,2.567c-0.163-1.475-1.137-2.802-2.632-3.321   c-2.072-0.721-4.336,0.375-5.057,2.446L52.495,60.05c-11.052,0.261-17.858-1.988-21.504-4.756c0.007,0.086,0.279,1.784,3.792,5.819   c0.836,0.961,3.302,3.005,4.367,3.693c0.531,0.35,1.084,0.648,1.645,0.936c0.565,0.267,1.138,0.522,1.719,0.728   c0.58,0.222,1.167,0.388,1.755,0.55c0.588,0.146,1.179,0.288,1.766,0.38c1.182,0.219,2.348,0.305,3.512,0.365   c1.156,0.029,2.302,0.009,3.432-0.07c1.129-0.08,2.238-0.216,3.343-0.374l0,0l2.196-0.405l0.759-2.181l1.521-4.378l0.685-1.967   c2.178-1.697,3.898-4.022,4.809-6.849l9.36-29.104C78.07,14.922,73.688,8.65,66.815,4.661z M61.992,29.118   c-0.243,0.767-0.962,1.251-1.728,1.231c-0.162-0.004-0.326-0.032-0.489-0.083c-6.158-1.958-11.691-3.466-16.265-4.601l1.076-3.369   c4.6,1.144,10.128,2.657,16.26,4.605C61.775,27.196,62.288,28.189,61.992,29.118z M63.178,24.418   c-0.284,0.703-0.969,1.125-1.684,1.106c-0.205-0.006-0.412-0.047-0.614-0.128c-5.803-2.336-11.18-3.9-15.703-4.95l1.082-3.389   c4.601,1.084,10.04,2.688,15.941,5.065C63.104,22.486,63.542,23.514,63.178,24.418z M64.353,19.718   c-0.315,0.637-0.964,0.999-1.63,0.981c-0.249-0.005-0.499-0.065-0.735-0.183c-5.454-2.7-10.673-4.32-15.145-5.291l1.086-3.403   c4.625,1.036,9.987,2.74,15.624,5.531C64.427,17.787,64.784,18.845,64.353,19.718z M65.516,15.015   c-0.339,0.568-0.946,0.877-1.563,0.86c-0.293-0.008-0.588-0.088-0.856-0.249C57.987,12.579,52.927,10.9,48.511,10l0.93-2.917   c0.055-0.171,0.074-0.343,0.076-0.514c4.665,0.987,9.979,2.798,15.388,6.026C65.742,13.096,66.015,14.178,65.516,15.015z"></path></g></svg>