<svg xmlns="http://www.w3.org/2000/svg" xmlns:xlink="http://www.w3.org/1999/xlink" xmlns:sketch="http://www.bohemiancoding.com/sketch/ns" viewBox="0 0 100 50" version="1.1" x="0px" y="0px"><title>Artboard</title><desc>Created with Sketch.</desc><g stroke="none" stroke-width="1" fill="none" fill-rule="evenodd" sketch:type="MSPage"><g sketch:type="MSArtboardGroup" fill="#000000"><path d="M34.0058587,-16.7934822 C29.588429,-12.3643354 27.3797144,-7.03295478 27.3797144,-0.799340901 C27.3797144,4.82497254 29.2076163,9.7462468 32.86342,13.9644819 C36.5192237,18.182717 41.0538264,20.713658 46.4672281,21.557305 L46.8187477,17.0930062 C46.8421825,15.8744048 47.3811791,14.9721715 48.4357378,14.3863054 L48.4357378,12.8044672 C48.4357378,11.8202124 48.9161481,11.328085 49.8769681,11.328085 C50.8377882,11.328085 51.3181985,11.8202124 51.3181985,12.8044672 L51.3181985,14.2456975 C52.5133651,14.8081289 53.1343832,15.7572318 53.1812523,17.0930062 L53.5679238,21.557305 C58.9578907,20.713658 63.4807763,18.182717 67.13658,13.9644819 C70.7923837,9.7462468 72.6202856,4.82497254 72.6202856,-0.799340901 C72.6202856,-7.03295478 70.4057122,-12.3643354 65.9765654,-16.7934822 C61.5474185,-21.2226291 56.2277556,-23.4372025 50.017576,-23.4372025 C43.7605273,-23.4372025 38.4232884,-21.2226291 34.0058587,-16.7934822 Z M49.4448383,-10.1747112 C49.6908675,-10.1747112 49.8903136,-10.3741573 49.8903136,-10.6201865 C49.8903136,-10.8662157 49.6908675,-11.0656618 49.4448383,-11.0656618 C49.1988091,-11.0656618 48.999363,-10.8662157 48.999363,-10.6201865 C48.999363,-10.3741573 49.1988091,-10.1747112 49.4448383,-10.1747112 Z M40.1888514,-1.46319413 C40.4348806,-1.46319413 40.6343267,-1.66264021 40.6343267,-1.90866943 C40.6343267,-2.15469865 40.4348806,-2.35414474 40.1888514,-2.35414474 C39.9428222,-2.35414474 39.7433761,-2.15469865 39.7433761,-1.90866943 C39.7433761,-1.66264021 39.9428222,-1.46319413 40.1888514,-1.46319413 Z M40.1888514,-0.423751747 C40.4348806,-0.423751747 40.6343267,-0.623197835 40.6343267,-0.869227052 C40.6343267,-1.11525627 40.4348806,-1.31470236 40.1888514,-1.31470236 C39.9428222,-1.31470236 39.7433761,-1.11525627 39.7433761,-0.869227052 C39.7433761,-0.623197835 39.9428222,-0.423751747 40.1888514,-0.423751747 Z M50.4842807,-10.1747112 C50.7303099,-10.1747112 50.929756,-10.3741573 50.929756,-10.6201865 C50.929756,-10.8662157 50.7303099,-11.0656618 50.4842807,-11.0656618 C50.2382515,-11.0656618 50.0388054,-10.8662157 50.0388054,-10.6201865 C50.0388054,-10.3741573 50.2382515,-10.1747112 50.4842807,-10.1747112 Z M59.7897648,-1.46319413 C60.0357941,-1.46319413 60.2352401,-1.66264021 60.2352401,-1.90866943 C60.2352401,-2.15469865 60.0357941,-2.35414474 59.7897648,-2.35414474 C59.5437356,-2.35414474 59.3442895,-2.15469865 59.3442895,-1.90866943 C59.3442895,-1.66264021 59.5437356,-1.46319413 59.7897648,-1.46319413 Z M59.7897648,-0.423751747 C60.0357941,-0.423751747 60.2352401,-0.623197835 60.2352401,-0.869227052 C60.2352401,-1.11525627 60.0357941,-1.31470236 59.7897648,-1.31470236 C59.5437356,-1.31470236 59.3442895,-1.11525627 59.3442895,-0.869227052 C59.3442895,-0.623197835 59.5437356,-0.423751747 59.7897648,-0.423751747 Z M33.2500915,70.2427682 C33.0391798,69.0710364 32.8751371,67.6649581 32.7579641,66.0245331 L32.6876602,69.8912486 L33.2500915,70.2427682 Z M47.3460271,28.5876968 C47.1585502,29.3141708 46.6195531,30.0992311 45.729037,30.9428781 L37.116807,39.3793482 L37.116807,48.6594654 L47.6272428,34.1768583 L47.9787624,34.1768583 C48.4943246,32.3723912 48.2834128,30.5093374 47.3460271,28.5876968 L47.3460271,28.5876968 Z M34.9725375,24.6155254 C35.2537532,24.6858294 35.5232517,24.849872 35.7810326,25.1076529 L35.7810326,25.5294764 L35.3592091,26.0567558 L35.3592091,32.6653241 L34.9725375,32.6653241 L34.9725375,24.6155254 Z M33.6367631,25.1076529 C33.8945439,24.849872 34.1757596,24.6858294 34.4804101,24.6155254 L34.4804101,32.6653241 L34.0937386,32.6653241 L34.0937386,26.0567558 L33.6367631,25.5294764 L33.6367631,25.1076529 Z M66.7850604,70.2427682 L67.3474918,69.8912486 L67.2771878,66.0245331 C67.0897109,67.8993041 66.9256683,69.3053825 66.7850604,70.2427682 L66.7850604,70.2427682 Z M52.6891249,28.5876968 C51.7283048,30.5093374 51.5173931,32.3723912 52.0563896,34.1768583 L52.4079092,34.1768583 L62.9183449,48.6594654 L62.9183449,39.3793482 L54.270963,30.9428781 C53.3804469,30.0757962 52.8531675,29.290736 52.6891249,28.5876968 L52.6891249,28.5876968 Z M65.0626144,24.6155254 L65.0626144,32.6653241 L64.6759429,32.6653241 L64.6759429,26.0567558 L64.2189674,25.5294764 L64.2189674,25.1076529 C64.5236179,24.849872 64.8048336,24.6858294 65.0626144,24.6155254 L65.0626144,24.6155254 Z M66.3632369,25.1076529 L66.3632369,25.5294764 L65.9414134,26.0567558 L65.9414134,32.6653241 L65.5547419,32.6653241 L65.5547419,24.6155254 C65.8125227,24.6858294 66.0820212,24.849872 66.3632369,25.1076529 L66.3632369,25.1076529 Z M67.171732,33.6495789 C67.288905,33.3449284 67.3474918,33.0285608 67.3474918,32.700476 L67.3474918,27.2870743 C67.3474918,25.2248259 66.6444526,24.1937019 65.2383742,24.1937019 C64.535335,24.1937019 64.0139145,24.5803735 63.674112,25.3537166 C63.3343096,26.1270597 63.1644086,26.7715121 63.1644086,27.2870743 L63.1644086,32.700476 C63.1644086,33.0988647 63.2112777,33.4152323 63.3050165,33.6495789 L63.3050165,61.4547785 C63.3050165,61.876602 63.4397655,63.8333945 63.709264,67.3251556 C63.9787625,70.8169167 64.3244233,72.5627975 64.7462468,72.5627975 L65.7305016,72.5627975 C66.1054561,72.5627975 66.4393997,70.8169167 66.7323325,67.3251556 C67.0252653,63.8333945 67.171732,61.876602 67.171732,61.4547785 L67.171732,33.6495789 Z M49.8769681,23.2094471 L49.8769681,26.7597949 C49.9707069,27.0410106 50.0644451,27.0410106 50.1581838,26.7597949 L50.1581838,23.2094471 L49.8769681,23.2094471 Z M50.5800073,26.8300989 L50.5800073,27.2870743 L49.4551446,27.2870743 L49.4551446,26.8300989 C48.9395824,25.4005857 48.6232148,24.0296593 48.5060417,22.7173197 L46.3969242,22.3306481 L46.4320762,21.9439766 C46.0805566,21.8971075 45.576712,21.8033687 44.9205419,21.6627609 C44.8736728,24.0530941 45.0611498,27.0292935 45.4829733,30.5913585 C45.8344929,30.286708 46.1391433,29.9703404 46.3969242,29.6422556 C46.6781399,29.2438669 46.8656168,28.8571953 46.9593555,28.4822409 L47.2054193,27.4276822 L47.6975467,28.411937 C48.259978,29.5367997 48.5411937,30.9311609 48.5411937,32.5950201 C48.5411937,33.0168436 48.5294766,33.3097765 48.5060417,33.4738191 C48.4591726,33.8253387 48.412303,34.1065544 48.3654339,34.3174661 L48.3654339,34.3174661 L48.259978,34.5986818 L47.9436104,34.5986818 L47.8030026,34.5986818 L46.3617722,36.6023435 C46.8304649,40.0472354 47.0765286,42.3789819 47.0999634,43.5975833 C47.1233982,46.2222631 48.0959354,47.5346027 50.017576,47.5346027 C51.8689127,47.5346027 52.8414498,46.2222631 52.9351886,43.5975833 C52.9586234,42.0274623 53.2046871,39.6957159 53.6733797,36.6023435 L52.2321494,34.5986818 L52.0915416,34.5986818 L51.7751739,34.5986818 L51.6697181,34.3174661 L51.6697181,34.3174661 C51.5994141,34.1065544 51.552545,33.8253387 51.5291102,33.4738191 C51.5056754,33.3097765 51.4939583,33.0168436 51.4939583,32.5950201 C51.4939583,30.9311609 51.7751739,29.5367997 52.3376053,28.411937 L52.7945807,27.4276822 L53.0757964,28.4822409 C53.1461003,28.8571953 53.3335773,29.2438669 53.6382278,29.6422556 C53.8257047,29.9469061 54.118638,30.2632737 54.5170267,30.5913585 C54.9388502,27.1933356 55.1380449,24.2171368 55.11461,21.6627609 C54.5053096,21.8033687 54.0014645,21.8971075 53.6030758,21.9439766 L53.6030758,22.3306481 L51.5291102,22.7173197 C51.3416333,24.1702671 51.0252656,25.5411935 50.5800073,26.8300989 L50.5800073,26.8300989 Z M48.8927133,22.7876236 C49.0333211,23.8421824 49.2207981,24.7678504 49.4551446,25.5646283 L49.4551446,23.1391432 L49.103625,22.8227755 L48.8927133,22.7876236 Z M50.5800073,23.1391432 L50.5800073,25.5646283 C50.7909191,24.7678504 50.978396,23.8421824 51.1424387,22.7876236 L50.9315269,22.8227755 L50.5800073,23.1391432 Z M49.8769681,11.7499085 C49.173929,11.7499085 48.8224094,12.101428 48.8224094,12.8044672 L48.8224094,14.5972171 C47.7678506,15.1362137 47.2405712,15.9798607 47.2405712,17.1281582 L46.8187477,21.9791285 L49.2793848,22.471256 L49.7012083,22.8227755 L50.3339436,22.8227755 L50.7557671,22.471256 L53.1812523,21.9791285 L52.7594288,17.1281582 C52.7594288,15.8392528 52.1501283,14.9604539 50.9315269,14.4917613 L50.9315269,12.8044672 C50.9315269,12.101428 50.5800073,11.7499085 49.8769681,11.7499085 L49.8769681,11.7499085 Z M50.017576,15.6517759 L50.017576,15.6517759 C49.0567559,15.6517759 48.5763457,16.1439033 48.5763457,17.1281582 L48.5763457,17.1281582 C48.5763457,18.0889782 49.0567559,18.5693885 50.017576,18.5693885 L50.017576,18.5693885 C51.0018308,18.5693885 51.4939583,18.0889782 51.4939583,17.1281582 L51.4939583,17.1281582 C51.4939583,16.1439033 51.0018308,15.6517759 50.017576,15.6517759 L50.017576,15.6517759 Z M50.017576,15.2651044 C51.2596117,15.2651044 51.8806298,15.8861225 51.8806298,17.1281582 L51.8806298,17.1281582 C51.8806298,18.3701939 51.2596117,18.991212 50.017576,18.991212 L50.017576,18.991212 C48.7755403,18.991212 48.1545222,18.3701939 48.1545222,17.1281582 L48.1545222,17.1281582 C48.1545222,15.8861225 48.7755403,15.2651044 50.017576,15.2651044 L50.017576,15.2651044 Z M50.017576,16.425119 L50.017576,16.425119 C49.5488834,16.425119 49.3145368,16.6594656 49.3145368,17.1281582 L49.3145368,17.1281582 C49.3145368,17.5734165 49.5488834,17.7960454 50.017576,17.7960454 L50.017576,17.7960454 C50.4862686,17.7960454 50.7206152,17.5734165 50.7206152,17.1281582 L50.7206152,17.1281582 C50.7206152,16.6594656 50.4862686,16.425119 50.017576,16.425119 L50.017576,16.425119 Z M50.017576,16.0384475 C50.74405,16.0384475 51.1072867,16.4016842 51.1072867,17.1281582 L51.1072867,17.1281582 C51.1072867,17.8311974 50.74405,18.182717 50.017576,18.182717 L50.017576,18.182717 C49.291102,18.182717 48.9278653,17.8311974 48.9278653,17.1281582 L48.9278653,17.1281582 C48.9278653,16.4016842 49.291102,16.0384475 50.017576,16.0384475 L50.017576,16.0384475 Z M49.8418162,19.6942512 L50.1933358,19.6942512 L50.1933358,22.6118638 L49.8418162,22.6118638 L49.8418162,19.6942512 Z M50.017576,-1.85389967 L50.017576,-1.85389967 C49.3145368,-1.80703057 48.9630172,-1.45551098 48.9630172,-0.799340901 L48.9630172,-0.799340901 C48.9630172,-0.096301721 49.3145368,0.255217869 50.017576,0.255217869 L50.017576,0.255217869 C50.7206152,0.255217869 51.0721347,-0.096301721 51.0721347,-0.799340901 L51.0721347,-0.799340901 C51.0721347,-1.50238008 50.7206152,-1.85389967 50.017576,-1.85389967 L50.017576,-1.85389967 Z M50.017576,-2.24057122 C50.978396,-2.24057122 51.4588063,-1.76016093 51.4588063,-0.799340901 L51.4588063,-0.799340901 C51.4588063,0.161479133 50.978396,0.641889418 50.017576,0.641889418 L50.017576,0.641889418 C49.0567559,0.641889418 48.5763457,0.161479133 48.5763457,-0.799340901 L48.5763457,-0.799340901 C48.5763457,-1.76016093 49.0567559,-2.24057122 50.017576,-2.24057122 L50.017576,-2.24057122 Z M50.017576,-4.94727206 L50.017576,-4.94727206 C48.8692785,-4.94727206 47.8850236,-4.53716569 47.0648114,-3.7169535 C46.2680335,-2.92017558 45.8696448,-1.94763841 45.8696448,-0.799340901 L45.8696448,-0.799340901 C45.8696448,0.466129623 46.3500551,1.84877316 47.3108751,3.34859026 C48.2716952,4.89527646 49.173929,5.66861955 50.017576,5.66861955 L50.017576,5.66861955 C50.8377882,5.66861955 51.740022,4.89527646 52.7242768,3.34859026 C53.6850969,1.84877316 54.1655071,0.466129623 54.1655071,-0.799340901 L54.1655071,-0.799340901 C54.1655071,-1.94763841 53.7554008,-2.92017558 52.9351886,-3.7169535 C52.1384107,-4.53716569 51.1658735,-4.94727206 50.017576,-4.94727206 L50.017576,-4.94727206 Z M50.017576,-5.36909557 C51.2596117,-5.36909557 52.3258881,-4.92383724 53.2164042,-4.03332113 C54.1069204,-3.14280501 54.5521787,-2.06481142 54.5521787,-0.799340901 L54.5521787,-0.799340901 C54.5521787,0.512998723 54.0483341,1.96594672 53.0406445,3.55950201 C51.9860857,5.24679605 50.978396,6.09044306 50.017576,6.09044306 L50.017576,6.09044306 C49.0567559,6.09044306 48.0373491,5.24679605 46.9593555,3.55950201 C45.9516659,1.96594672 45.4478213,0.512998723 45.4478213,-0.799340901 L45.4478213,-0.799340901 C45.4478213,-2.01794232 45.8930796,-3.09593538 46.7835958,-4.03332113 C47.6975467,-4.92383724 48.7755403,-5.36909557 50.017576,-5.36909557 L50.017576,-5.36909557 Z M47.5920908,-0.83449286 C47.5920908,-0.506408088 47.7326986,0.0208712969 48.0139143,0.747345295 C48.3419991,1.40351537 48.5529108,1.73160015 48.6466496,1.73160015 L51.3533504,1.73160015 C51.6111313,1.73160015 51.822043,1.40351537 51.9860857,0.747345295 C52.2673014,0.0911752148 52.4079092,-0.43610417 52.4079092,-0.83449286 C52.4079092,-2.45148297 51.6345661,-3.28341285 50.0878799,-3.33028195 C48.447455,-3.33028195 47.6155256,-2.49835207 47.5920908,-0.83449286 L47.5920908,-0.83449286 Z M50.017576,-3.7169535 L50.0878799,-3.7169535 L50.0878799,-3.7169535 C51.8689127,-3.7169535 52.7828636,-2.75613346 52.8297327,-0.83449286 C52.8297327,-0.459538452 52.6774077,0.126327174 52.3727572,0.92310509 C52.0446725,1.50897125 51.8454778,1.83705602 51.7751739,1.90735994 C51.6580009,2.04796778 51.5173931,2.1182717 51.3533504,2.1182717 L48.6466496,2.1182717 C48.5294766,2.1182717 48.4005859,2.05968492 48.259978,1.9425119 C48.0256315,1.68473105 47.8264374,1.3449286 47.6623947,0.92310509 C47.3577442,0.17319681 47.2054193,-0.412669352 47.2054193,-0.83449286 C47.2288541,-2.70926383 48.1662393,-3.6700844 50.017576,-3.7169535 L50.017576,-3.7169535 Z M32.828268,33.6495789 L32.828268,61.4547785 C32.828268,61.876602 32.9688759,63.8333945 33.2500915,67.3251556 C33.5313072,70.8169167 33.8828268,72.5627975 34.3046503,72.5627975 L35.2537532,72.5627975 C35.6521419,72.5627975 35.9919443,70.8169167 36.27316,67.3251556 C36.5543757,63.8333945 36.6949835,61.876602 36.6949835,61.4547785 L36.6949835,33.6495789 C36.8121565,33.3449284 36.8707433,33.0285608 36.8707433,32.700476 L36.8707433,27.2870743 C36.8707433,26.841816 36.6832664,26.2149396 36.308312,25.4064445 C35.9333576,24.5979495 35.429513,24.1937019 34.7967777,24.1937019 C33.3906994,24.1702671 32.6876602,25.2013916 32.6876602,27.2870743 L32.6876602,32.700476 C32.6876602,33.0988647 32.7345293,33.4152323 32.828268,33.6495789 L32.828268,33.6495789 Z" sketch:type="MSShapeGroup" transform="translate(50.000000, 24.562798) rotate(-270.000000) translate(-50.000000, -24.562798) "></path></g></g></svg>