<svg xmlns="http://www.w3.org/2000/svg" xmlns:xlink="http://www.w3.org/1999/xlink" xmlns:sketch="http://www.bohemiancoding.com/sketch/ns" viewBox="0 0 22 21" version="1.1" x="0px" y="0px"><title>TV_television</title><description>Created with Sketch (http://www.bohemiancoding.com/sketch)</description><g stroke="none" stroke-width="1" fill="none" fill-rule="evenodd" sketch:type="MSPage"><path d="M2,5 C2,5 0,5 0,7.06451612 L0,18.9354839 C0,21 2,21 2,21 L20,21 C20,21 22,21 22,18.9354839 L22,7.06451612 C22,5 20,5 20,5 L2,5 L2,5 Z M3.99999999,8 C3.99999999,8 3,8 3,8.95238095 L3,17.0476191 C3,18 3.99999999,18 3.99999999,18 L15,18 C15,18 16,18 16,17.0476191 L16,8.95238095 C16,8 15,8 15,8 L3.99999999,8 L3.99999999,8 Z M18,11 C18.5522848,11 19,10.5522848 19,10 C19,9.44771522 18.5522848,9 18,9 C17.4477152,9 17,9.44771522 17,10 C17,10.5522848 17.4477152,11 18,11 L18,11 Z M18,17 C18.5522848,17 19,16.5522848 19,16 C19,15.4477152 18.5522848,15 18,15 C17.4477152,15 17,15.4477152 17,16 C17,16.5522848 17.4477152,17 18,17 L18,17 Z M6.06488244,0.50607977 C5.97815255,0.587945077 5.97864674,0.721141448 6.06472018,0.802387104 L9.4523412,4 L11,3.97826429 L6.8515766,0.0625216462 C6.76410051,-0.0200480128 6.62349316,-0.0211990521 6.53614875,0.0612463059 L6.06488244,0.50607977 L6.06488244,0.50607977 Z M15.4631103,0.0612784602 C15.3763948,-0.0210404501 15.2349503,-0.0202327109 15.1477348,0.0625608669 L11,4 L12.5771621,3.99360485 L15.9357778,0.805275424 C16.0216762,0.723732139 16.0216283,0.591478849 15.9342984,0.508576674 L15.4631103,0.0612784602 L15.4631103,0.0612784602 Z" fill="#000000" sketch:type="MSShapeGroup"></path></g></svg>